<svg width="37" height="37" viewBox="0 0 37 37" fill="none" xmlns="http://www.w3.org/2000/svg">
<path d="M30.8335 10.791H6.16683C4.46395 10.791 3.0835 12.1715 3.0835 13.8743V29.291C3.0835 30.9939 4.46395 32.3744 6.16683 32.3744H30.8335C32.5364 32.3744 33.9168 30.9939 33.9168 29.291V13.8743C33.9168 12.1715 32.5364 10.791 30.8335 10.791Z" stroke="#30C692" stroke-width="2" stroke-linecap="round" stroke-linejoin="round"/>
<path d="M24.6668 32.375V7.70833C24.6668 6.89058 24.342 6.10632 23.7637 5.52809C23.1855 4.94985 22.4012 4.625 21.5835 4.625H15.4168C14.5991 4.625 13.8148 4.94985 13.2366 5.52809C12.6583 6.10632 12.3335 6.89058 12.3335 7.70833V32.375" stroke="#30C692" stroke-width="2" stroke-linecap="round" stroke-linejoin="round"/>
</svg>
