<svg width="65" height="72" viewBox="0 0 65 72" fill="none" xmlns="http://www.w3.org/2000/svg">
<g clip-path="url(#clip0)">
<path d="M58.0357 4.5H6.96429C5.11724 4.5 3.34585 5.21116 2.03979 6.47703C0.733735 7.7429 0 9.45979 0 11.25L0 60.75C0 62.5402 0.733735 64.2571 2.03979 65.523C3.34585 66.7888 5.11724 67.5 6.96429 67.5H26.8778V46.0814H17.7372V36H26.8778V28.3162C26.8778 19.5764 32.2461 14.7487 40.4683 14.7487C44.406 14.7487 48.5237 15.4294 48.5237 15.4294V24.0075H43.9867C39.5165 24.0075 38.1222 26.6962 38.1222 29.4539V36H48.1015L46.5055 46.0814H38.1222V67.5H58.0357C59.8828 67.5 61.6542 66.7888 62.9602 65.523C64.2663 64.2571 65 62.5402 65 60.75V11.25C65 9.45979 64.2663 7.7429 62.9602 6.47703C61.6542 5.21116 59.8828 4.5 58.0357 4.5Z" fill="white"/>
</g>
<defs>
<clipPath id="clip0">
<rect width="65" height="72" fill="white"/>
</clipPath>
</defs>
</svg>
