<svg width="32" height="32" viewBox="0 0 32 32" fill="none" xmlns="http://www.w3.org/2000/svg">
<path d="M24.7814 22.31C24.5414 23.35 24.3214 24 24.1214 24.26C22.8414 23.86 21.4114 23.66 19.8314 23.66H19.8014C17.8214 27.7 15.1514 29.72 11.7914 29.72C10.8514 29.72 10.0614 29.44 9.42141 28.88C8.78141 28.34 8.46141 27.68 8.46141 26.9C8.46141 26.14 8.71141 25.45 9.21141 24.83C9.71141 24.21 10.3714 23.7 11.1914 23.3C12.6714 22.6 14.2214 22.11 15.8414 21.83L16.4414 19.61C14.5614 20.79 12.8914 21.38 11.4314 21.38C10.5114 21.38 9.77141 21.11 9.21141 20.57C8.67141 20.01 8.40141 19.14 8.40141 17.96C8.40141 17.02 8.52141 16.08 8.76141 15.14C9.00141 14.2 9.13141 13.68 9.15141 13.58C7.77141 13.16 6.55141 12.44 5.49141 11.42C4.45141 10.38 3.93141 9.07 3.93141 7.49C3.93141 5.91 4.64141 4.55 6.06141 3.41C7.48141 2.27 9.03141 1.7 10.7114 1.7C12.3914 1.7 13.6314 2.13 14.4314 2.99C15.2314 3.83 15.6314 4.86 15.6314 6.08C15.6314 7.3 15.2014 9.19 14.3414 11.75C13.5014 14.29 13.0814 15.89 13.0814 16.55C13.0814 17.45 13.4814 17.9 14.2814 17.9C15.0814 17.9 16.0514 17.48 17.1914 16.64L17.8214 13.49C18.5614 9.79 19.1014 7.5 19.4414 6.62C19.7814 5.74 20.1114 4.99 20.4314 4.37C20.7714 3.73 21.1214 3.24 21.4814 2.9C22.3214 2.1 23.2714 1.7 24.3314 1.7C25.3914 1.7 26.2014 1.97 26.7614 2.51C27.3214 3.05 27.6014 3.89 27.6014 5.03C27.6014 6.15 27.1414 7.61 26.2214 9.41C25.3214 11.21 24.0714 13.01 22.4714 14.81C21.9914 17.51 21.3614 19.86 20.5814 21.86H20.8514C22.4314 21.9 23.6014 22.02 24.3614 22.22L24.7814 22.31ZM9.51141 11.33C10.2714 8.99 10.6514 7.15 10.6514 5.81C10.6514 4.47 10.1414 3.8 9.12141 3.8C8.30141 3.8 7.54141 4.16 6.84141 4.88C6.14141 5.58 5.79141 6.44 5.79141 7.46C5.79141 8.48 6.17141 9.31 6.93141 9.95C7.69141 10.59 8.55141 11.05 9.51141 11.33ZM22.9814 11.63C23.7814 10.71 24.4514 9.57 24.9914 8.21C25.5314 6.83 25.8014 5.76 25.8014 5C25.8014 4.24 25.6614 3.86 25.3814 3.86C25.1414 3.86 24.8714 4.14 24.5714 4.7C24.0514 5.7 23.5014 8.02 22.9214 11.66L22.9814 11.63ZM10.6814 26.57C10.6814 27.05 11.0214 27.29 11.7014 27.29C12.3814 27.29 13.0614 26.98 13.7414 26.36C14.4414 25.76 15.0014 24.95 15.4214 23.93C14.2814 24.03 13.2014 24.35 12.1814 24.89C11.1814 25.43 10.6814 25.99 10.6814 26.57Z" fill="#30C692"/>
</svg>
