<svg width="33" height="32" viewBox="0 0 33 32" fill="none" xmlns="http://www.w3.org/2000/svg">
<path d="M12.2069 22.6813H11.6844L11.386 23.1101L7.76609 28.3122L7.76609 24.6813C7.76609 23.5767 6.87066 22.6813 5.76609 22.6813H5C2.79086 22.6813 1 20.8904 1 18.6813V5.00001C1 2.79087 2.79086 1 5 1H27.7144C29.9235 1 31.7144 2.79086 31.7144 5V18.6813C31.7144 20.8904 29.9235 22.6813 27.7144 22.6813H12.2069Z" stroke="#30C692" stroke-width="2"/>
<path d="M7.46896 8.66877C7.61421 8.36633 8.04486 8.36633 8.19011 8.66877L8.84987 10.0426C8.90728 10.1621 9.02021 10.2454 9.15137 10.265L10.6443 10.4879C10.969 10.5364 11.1002 10.9338 10.8683 11.1661L9.77431 12.262C9.68311 12.3534 9.6416 12.4831 9.66285 12.6105L9.91921 14.1464C9.97399 14.4747 9.62733 14.7224 9.33453 14.5642L8.01967 13.8538C7.90102 13.7897 7.75805 13.7897 7.6394 13.8538L6.32454 14.5642C6.03174 14.7224 5.68508 14.4747 5.73986 14.1464L5.99622 12.6105C6.01747 12.4831 5.97596 12.3534 5.88476 12.262L4.79078 11.1662C4.55884 10.9338 4.69009 10.5364 5.01479 10.4879L6.5077 10.265C6.63886 10.2454 6.75179 10.1621 6.8092 10.0426L7.46896 8.66877Z" fill="#30C692"/>
<path d="M15.9792 8.66877C16.1245 8.36633 16.5551 8.36633 16.7004 8.66877L17.3601 10.0426C17.4175 10.1621 17.5305 10.2454 17.6616 10.265L19.1545 10.4879C19.4792 10.5364 19.6105 10.9338 19.3785 11.1661L18.2846 12.262C18.1934 12.3534 18.1519 12.4831 18.1731 12.6105L18.4295 14.1464C18.4842 14.4747 18.1376 14.7224 17.8448 14.5642L16.5299 13.8538C16.4113 13.7897 16.2683 13.7897 16.1497 13.8538L14.8348 14.5642C14.542 14.7224 14.1953 14.4747 14.2501 14.1464L14.5065 12.6105C14.5277 12.4831 14.4862 12.3534 14.395 12.262L13.301 11.1662C13.0691 10.9338 13.2003 10.5364 13.525 10.4879L15.018 10.265C15.1491 10.2454 15.262 10.1621 15.3195 10.0426L15.9792 8.66877Z" fill="#30C692"/>
<path d="M24.489 8.66877C24.6342 8.36633 25.0649 8.36633 25.2101 8.66877L25.8699 10.0426C25.9273 10.1621 26.0402 10.2454 26.1714 10.265L27.6643 10.4879C27.989 10.5364 28.1203 10.9338 27.8883 11.1661L26.7943 12.262C26.7031 12.3534 26.6616 12.4831 26.6829 12.6105L26.9392 14.1464C26.994 14.4747 26.6473 14.7224 26.3546 14.5642L25.0397 13.8538C24.921 13.7897 24.7781 13.7897 24.6594 13.8538L23.3446 14.5642C23.0518 14.7224 22.7051 14.4747 22.7599 14.1464L23.0162 12.6105C23.0375 12.4831 22.996 12.3534 22.9048 12.262L21.8108 11.1662C21.5789 10.9338 21.7101 10.5364 22.0348 10.4879L23.5277 10.265C23.6589 10.2454 23.7718 10.1621 23.8292 10.0426L24.489 8.66877Z" fill="#30C692"/>
</svg>
