<svg width="65" height="72" viewBox="0 0 65 72" fill="none" xmlns="http://www.w3.org/2000/svg">
<g clip-path="url(#clip0)">
<path d="M32.5145 20.0523C23.2868 20.0523 15.8437 27.1662 15.8437 35.9857C15.8437 44.8053 23.2868 51.9191 32.5145 51.9191C41.7421 51.9191 49.1852 44.8053 49.1852 35.9857C49.1852 27.1662 41.7421 20.0523 32.5145 20.0523ZM32.5145 46.3445C26.5513 46.3445 21.6763 41.699 21.6763 35.9857C21.6763 30.2725 26.5368 25.627 32.5145 25.627C38.4922 25.627 43.3526 30.2725 43.3526 35.9857C43.3526 41.699 38.4776 46.3445 32.5145 46.3445ZM53.7555 19.4006C53.7555 21.4668 52.0145 23.117 49.8671 23.117C47.7053 23.117 45.9788 21.4529 45.9788 19.4006C45.9788 17.3482 47.7198 15.6842 49.8671 15.6842C52.0145 15.6842 53.7555 17.3482 53.7555 19.4006ZM64.7968 23.1725C64.5502 18.1941 63.3604 13.7844 59.5446 10.1512C55.7432 6.51797 51.1294 5.38086 45.9207 5.13125C40.5524 4.84004 24.462 4.84004 19.0937 5.13125C13.8996 5.36699 9.28572 6.5041 5.46988 10.1373C1.65403 13.7705 0.478811 18.1803 0.217651 23.1586C-0.087036 28.2895 -0.087036 43.6682 0.217651 48.799C0.464303 53.7773 1.65403 58.1871 5.46988 61.8203C9.28572 65.4535 13.885 66.5906 19.0937 66.8402C24.462 67.1314 40.5524 67.1314 45.9207 66.8402C51.1294 66.6045 55.7432 65.4674 59.5446 61.8203C63.3459 58.1871 64.5356 53.7773 64.7968 48.799C65.1015 43.6682 65.1015 28.3033 64.7968 23.1725ZM57.8615 54.3043C56.7299 57.0223 54.539 59.1162 51.6808 60.2117C47.4006 61.8342 37.2444 61.4598 32.5145 61.4598C27.7846 61.4598 17.6138 61.8203 13.3482 60.2117C10.5045 59.1301 8.31362 57.0361 7.16742 54.3043C5.46988 50.2135 5.86162 40.5064 5.86162 35.9857C5.86162 31.465 5.48439 21.7441 7.16742 17.6672C8.29911 14.9492 10.49 12.8553 13.3482 11.7598C17.6283 10.1373 27.7846 10.5117 32.5145 10.5117C37.2444 10.5117 47.4151 10.1512 51.6808 11.7598C54.5245 12.8414 56.7153 14.9354 57.8615 17.6672C59.5591 21.758 59.1673 31.465 59.1673 35.9857C59.1673 40.5064 59.5591 50.2273 57.8615 54.3043Z" fill="white"/>
</g>
<defs>
<clipPath id="clip0">
<rect width="65" height="71" fill="white" transform="translate(0 0.5)"/>
</clipPath>
</defs>
</svg>
