<svg width="22" height="29" viewBox="0 0 22 29" fill="none" xmlns="http://www.w3.org/2000/svg">
<path d="M9.97229 27.4221C2.40469 16.3436 1 15.2066 1 11.1351C1 5.55797 5.47714 1.03687 11 1.03687C16.5229 1.03687 21 5.55797 21 11.1351C21 15.2066 19.5953 16.3436 12.0277 27.4221C11.5311 28.1466 10.4689 28.1465 9.97229 27.4221ZM11 15.3427C13.3012 15.3427 15.1667 13.4589 15.1667 11.1351C15.1667 8.81128 13.3012 6.92749 11 6.92749C8.6988 6.92749 6.83333 8.81128 6.83333 11.1351C6.83333 13.4589 8.6988 15.3427 11 15.3427Z" fill="#30C692"/>
</svg>
