<svg xmlns="http://www.w3.org/2000/svg" viewBox="0 0 696.86 325.94"><defs><style>.cls-1{fill:#ebebeb;}.cls-2{fill:#fff;}.cls-3{fill:#c7c7c7;}.cls-4{fill:#263238;}.cls-5{fill:#30c692;}.cls-6,.cls-7{opacity:0.1;}.cls-6{isolation:isolate;}.cls-8{fill:#a6a6a6;}.cls-9{fill:#455a64;}.cls-10{fill:#37474f;}.cls-11{fill:#dbdbdb;}</style></defs><g id="Layer_2" data-name="Layer 2"><g id="Layer_1-2" data-name="Layer 1"><g id="freepik--background-complete--inject-60"><polygon class="cls-1" points="50.44 61.77 102.15 61.77 102.15 124.56 115.45 124.56 115.45 89.01 181.2 89.01 181.2 145.3 189.9 145.3 189.9 13.21 247.04 13.21 247.04 49.47 276.33 49.47 276.33 94.57 285.2 94.57 285.2 66.21 337.14 66.21 337.14 150.87 352.34 150.87 352.34 82.04 399.85 82.04 399.85 29.77 432.15 29.77 432.15 0 469.52 0 469.52 132.04 482.08 132.04 482.08 76.94 543.63 76.94 543.63 155.82 552.15 155.82 552.15 91.43 614.57 91.43 614.57 33.43 646.42 33.43 646.42 325.45 50.44 325.45 50.44 61.77"/><rect class="cls-2" x="56.78" y="69.67" width="8.75" height="12"/><rect class="cls-2" x="71.95" y="69.67" width="8.75" height="12"/><rect class="cls-2" x="87.11" y="69.67" width="8.75" height="12"/><rect class="cls-2" x="56.78" y="87.73" width="8.75" height="12"/><rect class="cls-2" x="71.95" y="87.73" width="8.75" height="12"/><rect class="cls-2" x="87.11" y="87.73" width="8.75" height="12"/><rect class="cls-2" x="56.78" y="105.79" width="8.75" height="12"/><rect class="cls-2" x="71.95" y="105.79" width="8.75" height="12"/><rect class="cls-2" x="87.11" y="105.79" width="8.75" height="12"/><rect class="cls-2" x="56.78" y="123.85" width="8.75" height="12"/><rect class="cls-2" x="71.95" y="123.85" width="8.75" height="12"/><rect class="cls-2" x="87.11" y="123.85" width="8.75" height="12"/><rect class="cls-2" x="359.64" y="90.62" width="8.75" height="10.01"/><rect class="cls-2" x="374.8" y="90.62" width="8.75" height="10.01"/><rect class="cls-2" x="389.96" y="90.62" width="8.75" height="10.01"/><rect class="cls-2" x="359.64" y="105.69" width="8.75" height="10.01"/><rect class="cls-2" x="374.8" y="105.69" width="8.75" height="10.01"/><rect class="cls-2" x="389.96" y="105.69" width="8.75" height="10.01"/><rect class="cls-2" x="359.64" y="120.76" width="8.75" height="10.01"/><rect class="cls-2" x="374.8" y="120.76" width="8.75" height="10.01"/><rect class="cls-2" x="389.96" y="120.76" width="8.75" height="10.01"/><rect class="cls-2" x="359.64" y="135.83" width="8.75" height="10.01"/><rect class="cls-2" x="374.8" y="135.83" width="8.75" height="10.01"/><rect class="cls-2" x="389.96" y="135.83" width="8.75" height="10.01"/><rect class="cls-2" x="359.64" y="151.27" width="8.75" height="10.01"/><rect class="cls-2" x="374.8" y="151.27" width="8.75" height="10.01"/><rect class="cls-2" x="389.96" y="151.27" width="8.75" height="10.01"/><rect class="cls-2" x="359.64" y="166.71" width="8.75" height="10.01"/><rect class="cls-2" x="374.8" y="166.71" width="8.75" height="10.01"/><rect class="cls-2" x="389.96" y="166.71" width="8.75" height="10.01"/><rect class="cls-2" x="359.64" y="182.15" width="8.75" height="10.01"/><rect class="cls-2" x="374.8" y="182.15" width="8.75" height="10.01"/><rect class="cls-2" x="389.96" y="182.15" width="8.75" height="10.01"/><rect class="cls-2" x="359.64" y="197.59" width="8.75" height="10.01"/><rect class="cls-2" x="374.8" y="197.59" width="8.75" height="10.01"/><rect class="cls-2" x="389.96" y="197.59" width="8.75" height="10.01"/><rect class="cls-2" x="122.92" y="96.71" width="50.36" height="7.51"/><rect class="cls-2" x="122.92" y="111.28" width="50.36" height="7.51"/><rect class="cls-2" x="122.92" y="125.85" width="50.36" height="7.51"/><rect class="cls-2" x="122.92" y="140.42" width="50.36" height="7.51"/><rect class="cls-2" x="122.92" y="154.98" width="50.36" height="7.51"/><rect class="cls-2" x="122.92" y="169.55" width="50.36" height="7.51"/><rect class="cls-2" x="122.92" y="184.12" width="50.36" height="7.51"/><rect class="cls-2" x="122.92" y="198.68" width="50.36" height="7.51"/><rect class="cls-2" x="489.52" y="83.94" width="46.3" height="7.51"/><rect class="cls-2" x="489.52" y="98.51" width="46.3" height="7.51"/><rect class="cls-2" x="489.52" y="113.08" width="46.3" height="7.51"/><rect class="cls-2" x="489.52" y="127.64" width="46.3" height="7.51"/><rect class="cls-2" x="489.52" y="142.21" width="46.3" height="7.51"/><rect class="cls-2" x="489.52" y="156.78" width="46.3" height="7.51"/><rect class="cls-2" x="489.52" y="171.34" width="46.3" height="7.51"/><rect class="cls-2" x="489.52" y="185.91" width="46.3" height="7.51"/><rect class="cls-2" x="489.52" y="199.75" width="46.3" height="7.51"/><rect class="cls-2" x="489.52" y="213.59" width="46.3" height="7.51"/><rect class="cls-2" x="489.52" y="227.44" width="46.3" height="7.51"/><rect class="cls-2" x="489.52" y="241.28" width="46.3" height="7.51"/><rect class="cls-2" x="489.52" y="255.12" width="46.3" height="7.51"/><rect class="cls-2" x="561.78" y="101.54" width="48.91" height="7.51"/><rect class="cls-2" x="561.78" y="116.1" width="48.91" height="7.51"/><rect class="cls-2" x="561.78" y="130.67" width="48.91" height="7.51"/><rect class="cls-2" x="561.78" y="145.24" width="48.91" height="7.51"/><rect class="cls-2" x="561.78" y="159.8" width="48.91" height="7.51"/><rect class="cls-2" x="561.78" y="174.37" width="48.91" height="7.51"/><rect class="cls-2" x="561.78" y="188.94" width="48.91" height="7.51"/><rect class="cls-2" x="561.78" y="203.51" width="48.91" height="7.51"/><rect class="cls-2" x="561.78" y="216.54" width="48.91" height="7.51"/><rect class="cls-2" x="561.78" y="229.58" width="48.91" height="7.51"/><rect class="cls-2" x="561.78" y="242.62" width="48.91" height="7.51"/><rect class="cls-2" x="300.4" y="73" width="15.55" height="7.25"/><rect class="cls-2" x="300.4" y="87.07" width="15.55" height="7.25"/><rect class="cls-2" x="300.4" y="101.14" width="15.55" height="7.25"/><rect class="cls-2" x="300.4" y="115.21" width="15.55" height="7.25"/><rect class="cls-2" x="300.4" y="129.28" width="15.55" height="7.25"/><rect class="cls-2" x="300.4" y="143.34" width="15.55" height="7.25"/><rect class="cls-2" x="300.4" y="157.41" width="15.55" height="7.25"/><rect class="cls-2" x="300.4" y="171.48" width="15.55" height="7.25"/><rect class="cls-2" x="321.56" y="73" width="15.55" height="7.25"/><rect class="cls-2" x="321.56" y="87.07" width="15.55" height="7.25"/><rect class="cls-2" x="321.56" y="101.14" width="15.55" height="7.25"/><rect class="cls-2" x="321.56" y="115.21" width="15.55" height="7.25"/><rect class="cls-2" x="321.56" y="129.28" width="15.55" height="7.25"/><rect class="cls-2" x="321.56" y="143.34" width="15.55" height="7.25"/><rect class="cls-2" x="321.56" y="157.41" width="15.55" height="7.25"/><rect class="cls-2" x="321.56" y="171.48" width="15.55" height="7.25"/><rect class="cls-2" x="198.57" y="20.81" width="16.2" height="11.43"/><rect class="cls-2" x="222.72" y="20.81" width="16.2" height="11.43"/><rect class="cls-2" x="198.57" y="37.61" width="16.2" height="11.43"/><rect class="cls-2" x="222.72" y="37.61" width="16.2" height="11.43"/><rect class="cls-2" x="198.57" y="54.41" width="16.2" height="11.43"/><rect class="cls-2" x="222.72" y="54.41" width="16.2" height="11.43"/><rect class="cls-2" x="198.57" y="71.2" width="16.2" height="11.43"/><rect class="cls-2" x="222.72" y="71.2" width="16.2" height="11.43"/><rect class="cls-2" x="198.57" y="88" width="16.2" height="11.43"/><rect class="cls-2" x="222.72" y="88" width="16.2" height="11.43"/><rect class="cls-2" x="198.57" y="104.79" width="16.2" height="11.43"/><rect class="cls-2" x="222.72" y="104.79" width="16.2" height="11.43"/><rect class="cls-2" x="198.57" y="121.59" width="16.2" height="11.43"/><rect class="cls-2" x="222.72" y="121.59" width="16.2" height="11.43"/><rect class="cls-2" x="198.57" y="138.39" width="16.2" height="11.43"/><rect class="cls-2" x="222.72" y="138.39" width="16.2" height="11.43"/><rect class="cls-2" x="252.66" y="54.41" width="16.2" height="11.43"/><rect class="cls-2" x="252.66" y="71.2" width="16.2" height="11.43"/><rect class="cls-2" x="252.66" y="88" width="16.2" height="11.43"/><rect class="cls-2" x="252.66" y="104.79" width="16.2" height="11.43"/><rect class="cls-2" x="252.66" y="121.59" width="16.2" height="11.43"/><rect class="cls-2" x="252.66" y="138.39" width="16.2" height="11.43"/><rect class="cls-2" x="198.57" y="154.98" width="16.2" height="11.43"/><rect class="cls-2" x="222.72" y="154.98" width="16.2" height="11.43"/><rect class="cls-2" x="252.66" y="154.98" width="16.2" height="11.43"/><rect class="cls-2" x="198.57" y="171.58" width="16.2" height="11.43"/><rect class="cls-2" x="222.72" y="171.58" width="16.2" height="11.43"/><rect class="cls-2" x="252.66" y="171.58" width="16.2" height="11.43"/><rect class="cls-2" x="198.57" y="188.17" width="16.2" height="11.43"/><rect class="cls-2" x="222.72" y="188.17" width="16.2" height="11.43"/><rect class="cls-2" x="252.66" y="188.17" width="16.2" height="11.43"/><rect class="cls-2" x="198.57" y="204.77" width="16.2" height="11.43"/><rect class="cls-2" x="222.72" y="204.77" width="16.2" height="11.43"/><rect class="cls-2" x="252.66" y="204.77" width="16.2" height="11.43"/><rect class="cls-2" x="198.57" y="221.37" width="16.2" height="11.43"/><rect class="cls-2" x="222.72" y="221.37" width="16.2" height="11.43"/><rect class="cls-2" x="252.66" y="221.37" width="16.2" height="11.43"/><rect class="cls-2" x="406.45" y="37.13" width="8.75" height="10.01"/><rect class="cls-2" x="421.61" y="37.13" width="8.75" height="10.01"/><rect class="cls-2" x="406.45" y="52.2" width="8.75" height="10.01"/><rect class="cls-2" x="421.61" y="52.2" width="8.75" height="10.01"/><rect class="cls-2" x="406.45" y="67.27" width="8.75" height="10.01"/><rect class="cls-2" x="421.61" y="67.27" width="8.75" height="10.01"/><rect class="cls-2" x="406.45" y="82.34" width="8.75" height="10.01"/><rect class="cls-2" x="421.61" y="82.34" width="8.75" height="10.01"/><rect class="cls-2" x="406.45" y="97.78" width="8.75" height="10.01"/><rect class="cls-2" x="421.61" y="97.78" width="8.75" height="10.01"/><rect class="cls-2" x="406.45" y="113.22" width="8.75" height="10.01"/><rect class="cls-2" x="421.61" y="113.22" width="8.75" height="10.01"/><rect class="cls-2" x="406.45" y="128.66" width="8.75" height="10.01"/><rect class="cls-2" x="421.61" y="128.66" width="8.75" height="10.01"/><rect class="cls-2" x="406.45" y="144.11" width="8.75" height="10.01"/><rect class="cls-2" x="421.61" y="144.11" width="8.75" height="10.01"/><rect class="cls-2" x="406.45" y="159.71" width="8.75" height="10.01"/><rect class="cls-2" x="421.61" y="159.71" width="8.75" height="10.01"/><rect class="cls-2" x="406.45" y="175.32" width="8.75" height="10.01"/><rect class="cls-2" x="421.61" y="175.32" width="8.75" height="10.01"/><rect class="cls-2" x="406.45" y="190.92" width="8.75" height="10.01"/><rect class="cls-2" x="421.61" y="190.92" width="8.75" height="10.01"/><rect class="cls-2" x="406.45" y="206.53" width="8.75" height="10.01"/><rect class="cls-2" x="421.61" y="206.53" width="8.75" height="10.01"/><rect class="cls-2" x="620.05" y="38.76" width="8.75" height="11.8"/><rect class="cls-2" x="635.21" y="38.76" width="8.75" height="11.8"/><rect class="cls-2" x="620.05" y="56.51" width="8.75" height="11.8"/><rect class="cls-2" x="635.21" y="56.51" width="8.75" height="11.8"/><rect class="cls-2" x="620.05" y="74.27" width="8.75" height="11.8"/><rect class="cls-2" x="635.21" y="74.27" width="8.75" height="11.8"/><rect class="cls-2" x="620.05" y="92.02" width="8.75" height="11.8"/><rect class="cls-2" x="635.21" y="92.02" width="8.75" height="11.8"/><rect class="cls-2" x="620.05" y="110.21" width="8.75" height="11.8"/><rect class="cls-2" x="635.21" y="110.21" width="8.75" height="11.8"/><rect class="cls-2" x="620.05" y="128.4" width="8.75" height="11.8"/><rect class="cls-2" x="635.21" y="128.4" width="8.75" height="11.8"/><rect class="cls-2" x="620.05" y="146.6" width="8.75" height="11.8"/><rect class="cls-2" x="635.21" y="146.6" width="8.75" height="11.8"/><rect class="cls-2" x="620.05" y="164.79" width="8.75" height="11.8"/><rect class="cls-2" x="635.21" y="164.79" width="8.75" height="11.8"/><rect class="cls-2" x="620.05" y="183.17" width="8.75" height="11.8"/><rect class="cls-2" x="635.21" y="183.17" width="8.75" height="11.8"/><rect class="cls-2" x="620.05" y="201.56" width="8.75" height="11.8"/><rect class="cls-2" x="635.21" y="201.56" width="8.75" height="11.8"/><rect class="cls-2" x="620.05" y="219.94" width="8.75" height="11.8"/><rect class="cls-2" x="635.21" y="219.94" width="8.75" height="11.8"/><rect class="cls-2" x="620.05" y="238.33" width="8.75" height="11.8"/><rect class="cls-2" x="635.21" y="238.33" width="8.75" height="11.8"/><rect class="cls-2" x="438.87" y="37.13" width="8.75" height="10.01"/><rect class="cls-2" x="454.03" y="37.13" width="8.75" height="10.01"/><rect class="cls-2" x="438.87" y="21.68" width="8.75" height="10.01"/><rect class="cls-2" x="454.03" y="21.68" width="8.75" height="10.01"/><rect class="cls-2" x="438.87" y="6.23" width="8.75" height="10.01"/><rect class="cls-2" x="454.03" y="6.23" width="8.75" height="10.01"/><rect class="cls-2" x="438.87" y="52.2" width="8.75" height="10.01"/><rect class="cls-2" x="454.03" y="52.2" width="8.75" height="10.01"/><rect class="cls-2" x="438.87" y="67.27" width="8.75" height="10.01"/><rect class="cls-2" x="454.03" y="67.27" width="8.75" height="10.01"/><rect class="cls-2" x="438.87" y="82.34" width="8.75" height="10.01"/><rect class="cls-2" x="454.03" y="82.34" width="8.75" height="10.01"/><rect class="cls-2" x="438.87" y="97.78" width="8.75" height="10.01"/><rect class="cls-2" x="454.03" y="97.78" width="8.75" height="10.01"/><rect class="cls-2" x="438.87" y="113.22" width="8.75" height="10.01"/><rect class="cls-2" x="454.03" y="113.22" width="8.75" height="10.01"/><rect class="cls-2" x="438.87" y="128.66" width="8.75" height="10.01"/><rect class="cls-2" x="454.03" y="128.66" width="8.75" height="10.01"/><rect class="cls-2" x="438.87" y="144.11" width="8.75" height="10.01"/><rect class="cls-2" x="454.03" y="144.11" width="8.75" height="10.01"/><rect class="cls-2" x="438.87" y="159.71" width="8.75" height="10.01"/><rect class="cls-2" x="454.03" y="159.71" width="8.75" height="10.01"/><rect class="cls-2" x="438.87" y="175.32" width="8.75" height="10.01"/><rect class="cls-2" x="454.03" y="175.32" width="8.75" height="10.01"/><rect class="cls-2" x="438.87" y="190.92" width="8.75" height="10.01"/><rect class="cls-2" x="454.03" y="190.92" width="8.75" height="10.01"/><rect class="cls-2" x="438.87" y="206.53" width="8.75" height="10.01"/><rect class="cls-2" x="454.03" y="206.53" width="8.75" height="10.01"/></g><g id="freepik--Floor--inject-60"><rect class="cls-3" x="28.71" y="314.81" width="639.43" height="10.58"/><path class="cls-4" d="M61.61,314.81a28.1,28.1,0,0,1,0,10.58A28.1,28.1,0,0,1,61.61,314.81Z"/><path class="cls-4" d="M99.86,314.81a28.1,28.1,0,0,1,0,10.58A28.1,28.1,0,0,1,99.86,314.81Z"/><path class="cls-4" d="M138.1,314.81a28.1,28.1,0,0,1,0,10.58A28.1,28.1,0,0,1,138.1,314.81Z"/><path class="cls-4" d="M176.34,314.81a25.36,25.36,0,0,1,.5,5.29,24.08,24.08,0,0,1-.5,5.29,24.08,24.08,0,0,1-.5-5.29A25.36,25.36,0,0,1,176.34,314.81Z"/><path class="cls-4" d="M214.58,314.81a28.1,28.1,0,0,1,0,10.58A28.1,28.1,0,0,1,214.58,314.81Z"/><path class="cls-4" d="M252.82,314.81a28.1,28.1,0,0,1,0,10.58A28.1,28.1,0,0,1,252.82,314.81Z"/><path class="cls-4" d="M291.07,314.81a28.1,28.1,0,0,1,0,10.58A28.1,28.1,0,0,1,291.07,314.81Z"/><path class="cls-4" d="M329.31,314.81a28.23,28.23,0,0,1,0,10.58,24.08,24.08,0,0,1-.5-5.29A25.36,25.36,0,0,1,329.31,314.81Z"/><path class="cls-4" d="M367.55,314.81a25.36,25.36,0,0,1,.5,5.29,24.08,24.08,0,0,1-.5,5.29,28.23,28.23,0,0,1,0-10.58Z"/><path class="cls-4" d="M405.79,314.81a28.1,28.1,0,0,1,0,10.58A28.1,28.1,0,0,1,405.79,314.81Z"/><path class="cls-4" d="M444,314.81a28.1,28.1,0,0,1,0,10.58A28.1,28.1,0,0,1,444,314.81Z"/><path class="cls-4" d="M482.28,314.81a28.1,28.1,0,0,1,0,10.58A28.1,28.1,0,0,1,482.28,314.81Z"/><path class="cls-4" d="M520.52,314.81a25.36,25.36,0,0,1,.5,5.29,24.08,24.08,0,0,1-.5,5.29,24.08,24.08,0,0,1-.5-5.29A25.36,25.36,0,0,1,520.52,314.81Z"/><path class="cls-4" d="M558.76,314.81a28.1,28.1,0,0,1,0,10.58A28.1,28.1,0,0,1,558.76,314.81Z"/><path class="cls-4" d="M597,314.81a28.1,28.1,0,0,1,0,10.58A28.1,28.1,0,0,1,597,314.81Z"/><path class="cls-4" d="M635.25,314.81a28.1,28.1,0,0,1,0,10.58A28.1,28.1,0,0,1,635.25,314.81Z"/><polygon class="cls-4" points="0 325.45 87.11 325.2 174.22 325.11 348.43 324.95 522.64 325.11 609.75 325.2 696.86 325.45 609.75 325.69 522.64 325.78 348.43 325.94 174.22 325.78 87.11 325.69 0 325.45"/></g><g id="freepik--store-4--inject-60"><rect class="cls-5" x="513.51" y="97.03" width="145.54" height="217.79"/><rect class="cls-6" x="635.66" y="186.02" width="9.93" height="4.2"/><rect class="cls-6" x="641.2" y="180.72" width="9.93" height="4.2"/><rect class="cls-6" x="630.12" y="180.72" width="9.93" height="4.2"/><rect class="cls-6" x="609.65" y="129.87" width="9.93" height="4.2"/><rect class="cls-6" x="615.19" y="135.16" width="9.93" height="4.2"/><rect class="cls-6" x="521.61" y="180.72" width="9.93" height="4.2"/><rect class="cls-6" x="521.61" y="285.89" width="9.93" height="4.2"/><rect class="cls-6" x="516.07" y="280.6" width="9.93" height="4.2"/><rect class="cls-6" x="641.2" y="285.89" width="9.93" height="4.2"/><rect class="cls-6" x="609.65" y="223.8" width="9.93" height="4.2"/><rect class="cls-6" x="604.1" y="229.09" width="9.93" height="4.2"/><rect class="cls-6" x="527.16" y="105.77" width="9.93" height="4.2"/><rect class="cls-6" x="521.62" y="111.07" width="9.93" height="4.2"/><rect class="cls-6" x="564.06" y="111.07" width="9.93" height="4.2"/><rect class="cls-2" x="510.84" y="215.23" width="150.88" height="4.24"/><rect class="cls-2" x="510.84" y="192.91" width="150.88" height="4.24"/><polyline class="cls-1" points="513.51 215.23 513.51 197.15 659.05 197.15 659.05 215.23"/><path class="cls-5" d="M586.28,180.11a26.08,26.08,0,1,0,26.08,26.08,26.08,26.08,0,0,0-26.08-26.08Zm0,35.12a9,9,0,1,1,9-9A9,9,0,0,1,586.28,215.23Z"/><path class="cls-6" d="M586.28,180.11a26.08,26.08,0,1,0,26.08,26.08,26.08,26.08,0,0,0-26.08-26.08Zm0,35.12a9,9,0,1,1,9-9A9,9,0,0,1,586.28,215.23Z"/><path class="cls-5" d="M570,218.83h-2.21a.78.78,0,0,1-.78-.78h0a.78.78,0,0,1,.78-.78H570a.78.78,0,0,1,.78.78h0a.78.78,0,0,1-.78.78Z"/><path class="cls-5" d="M601.75,202.58h-2.21a.78.78,0,0,1-.78-.78h0a.78.78,0,0,1,.78-.78h2.21a.78.78,0,0,1,.78.78h0a.78.78,0,0,1-.78.78Z"/><path class="cls-2" d="M594.43,221.82h-2.21a.78.78,0,0,1-.79-.77v0h0a.78.78,0,0,1,.78-.78h2.22a.78.78,0,0,1,.78.78h0a.78.78,0,0,1-.75.81Z"/><path class="cls-2" d="M569.77,194h-2.21a.78.78,0,0,1-.78-.78h0a.78.78,0,0,1,.78-.78h2.21a.78.78,0,0,1,.78.78h0a.78.78,0,0,1-.78.78Z"/><path class="cls-5" d="M573.48,202.46v-2.21a.78.78,0,0,1,.78-.78h0a.78.78,0,0,1,.78.78h0v2.21a.78.78,0,0,1-.78.78h0a.78.78,0,0,1-.78-.78Z"/><path class="cls-2" d="M607.43,211.79v-2.21a.78.78,0,0,1,.78-.78h0a.78.78,0,0,1,.78.78h0v2.21a.78.78,0,0,1-.78.78h0a.78.78,0,0,1-.78-.78Z"/><path class="cls-2" d="M585.27,193.21V191a.78.78,0,0,1,.78-.78h0a.76.76,0,0,1,.77.77h0v2.21a.76.76,0,0,1-.76.78h0a.78.78,0,0,1-.78-.78Z"/><path class="cls-2" d="M579,219.65l-1.59-1.57a.77.77,0,0,1,0-1.09h0a.78.78,0,0,1,1.1,0l1.56,1.56a.78.78,0,0,1,0,1.1h0A.79.79,0,0,1,579,219.65Z"/><path class="cls-2" d="M604,195.12l-1.53-1.56a.78.78,0,0,1,0-1.1h0a.77.77,0,0,1,1.09,0h0L605.1,194a.78.78,0,0,1,0,1.1h0a.77.77,0,0,1-1.09,0Z"/><path class="cls-5" d="M600.88,215.91l-1.57-1.57a.78.78,0,0,1,0-1.1h0a.8.8,0,0,1,1.11,0l1.56,1.57a.78.78,0,0,1,0,1.1h0A.78.78,0,0,1,600.88,215.91Z"/><path class="cls-5" d="M578,189.46l-1.57-1.57a.77.77,0,0,1,0-1.09h0a.78.78,0,0,1,1.1,0l1.56,1.57a.77.77,0,0,1,0,1.09h0A.77.77,0,0,1,578,189.46Z"/><path class="cls-2" d="M566.26,207.71l1.56-1.56a.77.77,0,0,1,1.09,0h0a.77.77,0,0,1,0,1.09h0l-1.56,1.56a.77.77,0,0,1-1.09,0h0a.77.77,0,0,1,0-1.09Z"/><path class="cls-5" d="M583.93,226.67l1.57-1.56a.77.77,0,0,1,1.09,0h0a.78.78,0,0,1,0,1.1L585,227.77a.8.8,0,0,1-1.11,0h0A.78.78,0,0,1,583.93,226.67Z"/><path class="cls-5" d="M594,187.6l1.57-1.56a.77.77,0,0,1,1.09,0h0a.78.78,0,0,1,0,1.1l-1.56,1.56a.78.78,0,0,1-1.1,0h0A.78.78,0,0,1,594,187.6Z"/><path class="cls-4" d="M617.14,208.33v-5.06a.47.47,0,0,1,.45-.47h1a3,3,0,0,1,0,6h-1a.47.47,0,0,1-.47-.45Zm1-.48h.53a2.05,2.05,0,0,0,0-4.1h-.53Z"/><path class="cls-4" d="M627.91,203.55a3.16,3.16,0,0,1,0,4.34,2.85,2.85,0,0,1-2,.91,2.9,2.9,0,0,1-2.1-.91,3.18,3.18,0,0,1,0-4.34,2.84,2.84,0,0,1,2.1-.92A2.77,2.77,0,0,1,627.91,203.55Zm-.11,2.17a2.2,2.2,0,0,0-.59-1.5,1.82,1.82,0,0,0-1.35-.61,1.87,1.87,0,0,0-1.39.61,2.22,2.22,0,0,0,0,3,1.82,1.82,0,0,0,2.74,0,2.2,2.2,0,0,0,.59-1.5Z"/><path class="cls-4" d="M631.19,208.33a.48.48,0,0,1-.47.47.47.47,0,0,1-.47-.47v-5h0a.44.44,0,0,1,.19-.39.46.46,0,0,1,.64.09h0l2.77,3.83v-3.53a.47.47,0,0,1,.94,0v5a.48.48,0,0,1-.47.47.46.46,0,0,1-.36-.17v0l-2.74-3.81Z"/><path class="cls-4" d="M638.92,208.8a2.46,2.46,0,0,1-2.48-2.44v-3.09a.47.47,0,0,1,.45-.47h0a.48.48,0,0,1,.48.47v3.06a1.53,1.53,0,0,0,3,0v-3.06a.48.48,0,0,1,.48-.47.47.47,0,0,1,.47.45v3.08A2.48,2.48,0,0,1,638.92,208.8Z"/><path class="cls-4" d="M646.82,203.75h-1.39v4.58a.47.47,0,0,1-.45.47h0a.47.47,0,0,1-.47-.45v-4.6h-1.36a.48.48,0,0,1-.47-.48.47.47,0,0,1,.47-.47h3.66a.48.48,0,0,1,0,.95Z"/><path class="cls-4" d="M648.43,207.31a.44.44,0,0,1,.62-.06h0a2.83,2.83,0,0,0,1.64.66,1.84,1.84,0,0,0,1.07-.32.75.75,0,0,0,.37-.61.54.54,0,0,0-.08-.28.75.75,0,0,0-.25-.25,3.25,3.25,0,0,0-1.18-.41h0a4.23,4.23,0,0,1-1.1-.33,1.93,1.93,0,0,1-.8-.67,1.32,1.32,0,0,1-.2-.7,1.59,1.59,0,0,1,.69-1.26,2.51,2.51,0,0,1,1.48-.45,3.27,3.27,0,0,1,1.87.69.44.44,0,0,1-.49.73,2.47,2.47,0,0,0-1.38-.55,1.56,1.56,0,0,0-1,.3.68.68,0,0,0-.32.54.35.35,0,0,0,.06.24.8.8,0,0,0,.23.22,3.11,3.11,0,0,0,1.07.38h0a4.88,4.88,0,0,1,1.18.36,2,2,0,0,1,.86.71,1.43,1.43,0,0,1,.2.73,1.65,1.65,0,0,1-.73,1.33,2.65,2.65,0,0,1-1.59.49,3.7,3.7,0,0,1-2.2-.86A.46.46,0,0,1,648.43,207.31Z"/><path class="cls-4" d="M525.2,203.27v5.06a.48.48,0,0,1-.48.47.47.47,0,0,1-.47-.45v-3.63L523,206.44a.47.47,0,0,1-.38.19h0a.49.49,0,0,1-.39-.19L521,204.72v3.61a.48.48,0,0,1-.48.47.47.47,0,0,1-.47-.47v-5.06a.48.48,0,0,1,.47-.47h0a.45.45,0,0,1,.37.2l1.71,2.37,1.72-2.36a.46.46,0,0,1,.38-.2h0A.49.49,0,0,1,525.2,203.27Z"/><path class="cls-4" d="M527.34,203.27a.47.47,0,0,1,.45-.47h0a.48.48,0,0,1,.48.47v5.06a.47.47,0,0,1-.47.47h0a.47.47,0,0,1-.47-.45v-5.08Z"/><path class="cls-4" d="M529.63,205.72a3.14,3.14,0,0,1,3.15-3.09,3.22,3.22,0,0,1,2,.67.49.49,0,0,1-.6.78,2.16,2.16,0,0,0-1.38-.47,2.29,2.29,0,0,0-1.55.61,2.16,2.16,0,0,0-.62,1.5,2.08,2.08,0,0,0,.62,1.49,2.24,2.24,0,0,0,1.55.62,2.11,2.11,0,0,0,1.38-.48.49.49,0,0,1,.68.18.5.5,0,0,1-.08.61,3.29,3.29,0,0,1-2,.66A3.14,3.14,0,0,1,529.63,205.72Z"/><path class="cls-4" d="M536.51,208.33v-5.06a.47.47,0,0,1,.45-.47h0a.47.47,0,0,1,.48.46h0v2.06h2.22v-2.06a.5.5,0,1,1,1,0v5.06a.5.5,0,1,1-1,0v-2.06h-2.25v2.06a.47.47,0,0,1-.47.47h0A.46.46,0,0,1,536.51,208.33Z"/><path class="cls-4" d="M545.09,207.39H543l-.42,1.11a.49.49,0,0,1-.45.3H542a.48.48,0,0,1-.28-.62h0l1.89-5a.47.47,0,0,1,.46-.3.45.45,0,0,1,.45.3l1.9,5a.5.5,0,0,1-.29.62H546a.47.47,0,0,1-.44-.3Zm-.35-.94-.69-1.85-.7,1.85Z"/><path class="cls-4" d="M547.57,208.33v-5.06a.47.47,0,0,1,.47-.47h2.81a.48.48,0,0,1,0,.95h-2.32v1.57h2a.49.49,0,0,1,.48.47.47.47,0,0,1-.48.48h-2v1.58h2.32a.48.48,0,0,1,0,1h-2.8a.47.47,0,0,1-.48-.46Z"/><path class="cls-4" d="M552.66,208.33v-5.06a.48.48,0,0,1,1,0v4.58h2.33a.48.48,0,0,1,0,1h-2.81a.47.47,0,0,1-.47-.47Z"/><rect class="cls-5" x="510.84" y="122.57" width="150.88" height="4.24"/><rect class="cls-6" x="510.84" y="122.57" width="150.88" height="4.24"/><rect class="cls-5" x="510.84" y="92.79" width="150.88" height="4.24"/><rect class="cls-6" x="510.84" y="92.79" width="150.88" height="4.24"/><rect class="cls-5" x="510.84" y="310.57" width="150.88" height="4.24"/><rect class="cls-6" x="510.84" y="310.57" width="150.88" height="4.24"/><rect class="cls-2" x="528.67" y="135.92" width="26.91" height="41.21"/><rect class="cls-4" x="530.86" y="138.11" width="22.53" height="36.82"/><g class="cls-7"><polygon class="cls-2" points="553.39 138.11 553.39 142.55 530.86 165.08 530.86 154.4 547.16 138.11 553.39 138.11"/><polygon class="cls-2" points="553.39 161.39 553.39 172.06 550.52 174.93 539.85 174.93 553.39 161.39"/><polygon class="cls-2" points="553.39 156.71 553.39 158.96 537.42 174.93 535.17 174.93 553.39 156.71"/><polygon class="cls-2" points="544.89 138.11 530.86 152.14 530.86 147.72 540.47 138.11 544.89 138.11"/></g><rect class="cls-2" x="530.86" y="148.66" width="22.53" height="2.19"/><rect class="cls-2" x="572.83" y="135.92" width="26.91" height="41.21"/><rect class="cls-4" x="575.02" y="138.11" width="22.53" height="36.82"/><g class="cls-7"><polygon class="cls-2" points="597.55 138.11 597.55 142.55 575.02 165.08 575.02 154.4 591.31 138.11 597.55 138.11"/><polygon class="cls-2" points="597.55 161.39 597.55 172.06 594.67 174.93 584 174.93 597.55 161.39"/><polygon class="cls-2" points="597.55 156.71 597.55 158.96 581.57 174.93 579.32 174.93 597.55 156.71"/><polygon class="cls-2" points="589.04 138.11 575.02 152.14 575.02 147.72 584.63 138.11 589.04 138.11"/></g><rect class="cls-2" x="575.02" y="148.66" width="22.53" height="2.19"/><rect class="cls-2" x="616.98" y="135.92" width="26.91" height="41.21"/><rect class="cls-4" x="619.17" y="138.11" width="22.53" height="36.82"/><g class="cls-7"><polygon class="cls-2" points="641.7 138.11 641.7 142.55 619.17 165.08 619.17 154.4 635.46 138.11 641.7 138.11"/><polygon class="cls-2" points="641.7 161.39 641.7 172.06 638.82 174.93 628.15 174.93 641.7 161.39"/><polygon class="cls-2" points="641.7 156.71 641.7 158.96 625.72 174.93 623.48 174.93 641.7 156.71"/><polygon class="cls-2" points="633.2 138.11 619.17 152.14 619.17 147.72 628.78 138.11 633.2 138.11"/></g><rect class="cls-2" x="619.17" y="148.66" width="22.53" height="2.19"/><rect class="cls-2" x="528.67" y="102.52" width="26.91" height="14.94"/><rect class="cls-4" x="530.86" y="104.71" width="22.53" height="10.55"/><g class="cls-7"><polygon class="cls-2" points="553.39 104.71 553.39 109.15 547.28 115.26 536.6 115.26 547.16 104.71 553.39 104.71"/><polygon class="cls-2" points="544.89 104.71 534.33 115.26 530.86 115.26 530.86 114.32 540.48 104.71 544.89 104.71"/></g><rect class="cls-2" x="572.83" y="102.52" width="26.91" height="14.94"/><rect class="cls-4" x="575.02" y="104.71" width="22.53" height="10.55"/><g class="cls-7"><polygon class="cls-2" points="597.55 104.71 597.55 109.15 591.44 115.26 580.76 115.26 591.32 104.71 597.55 104.71"/><polygon class="cls-2" points="589.05 104.71 578.49 115.26 575.02 115.26 575.02 114.32 584.64 104.71 589.05 104.71"/></g><rect class="cls-2" x="616.99" y="102.52" width="26.91" height="14.94"/><rect class="cls-4" x="619.18" y="104.71" width="22.53" height="10.55"/><g class="cls-7"><polygon class="cls-2" points="641.7 104.71 641.7 109.15 635.59 115.26 624.91 115.26 635.47 104.71 641.7 104.71"/><polygon class="cls-2" points="633.2 104.71 622.64 115.26 619.17 115.26 619.17 114.32 628.79 104.71 633.2 104.71"/></g><rect class="cls-2" x="616.63" y="236.21" width="33.62" height="78.6"/><rect class="cls-4" x="621.63" y="241.34" width="23.62" height="64.79"/><g class="cls-7"><polygon class="cls-2" points="645.25 293.7 645.25 304.88 644 306.13 632.81 306.13 645.25 293.7"/><polygon class="cls-2" points="645.25 241.34 645.25 245.15 621.63 268.77 621.63 257.59 637.88 241.34 645.25 241.34"/><polygon class="cls-2" points="645.25 249.76 645.25 252.12 621.63 275.74 621.63 273.38 645.25 249.76"/><polygon class="cls-2" points="645.25 275.71 645.25 278.07 621.63 301.69 621.63 299.33 645.25 275.71"/><polygon class="cls-2" points="628.18 241.34 621.63 247.89 621.63 243.26 623.55 241.34 628.18 241.34"/></g><rect class="cls-8" x="646.75" y="281.79" width="2.07" height="6.66"/><rect class="cls-2" x="621.63" y="279.63" width="23.62" height="2.16"/><rect class="cls-2" x="522.31" y="236.21" width="83.49" height="63.44"/><rect class="cls-4" x="524.39" y="238.37" width="79.34" height="59.12"/><g class="cls-7"><polygon class="cls-2" points="603.73 274.49 603.73 285.67 591.91 297.49 580.72 297.49 603.73 274.49"/><polygon class="cls-2" points="570.8 238.37 524.39 284.78 524.39 273.59 559.62 238.37 570.8 238.37"/><polygon class="cls-2" points="577.77 238.37 524.39 291.74 524.39 289.38 575.41 238.37 577.77 238.37"/><polygon class="cls-2" points="603.73 256.5 603.73 258.85 565.09 297.49 562.73 297.49 603.73 256.5"/><polygon class="cls-2" points="603.73 289.93 603.73 294.56 600.8 297.49 596.17 297.49 603.73 289.93"/><polygon class="cls-2" points="549.92 238.37 524.39 263.9 524.39 259.27 545.29 238.37 549.92 238.37"/></g><rect class="cls-4" x="614.88" y="236.3" width="0.28" height="20.19" transform="translate(-30.77 98.34) rotate(-8.92)"/><path class="cls-2" d="M617.15,256.32a.55.55,0,0,1-.55.54.54.54,0,0,1-.54-.54.55.55,0,1,1,1.09,0Z"/><rect class="cls-4" x="641.71" y="246.24" width="20.19" height="0.28" transform="translate(307.87 852.4) rotate(-81.13)"/><path class="cls-2" d="M649.65,256.32a.55.55,0,0,0,.55.54.54.54,0,0,0,.54-.54.55.55,0,1,0-1.09,0Z"/><path class="cls-9" d="M653.87,236.22H612.93a38.59,38.59,0,0,0,4.78-12.42h31.38A38.59,38.59,0,0,0,653.87,236.22Z"/><path class="cls-10" d="M653.87,236.22v1.47a1.3,1.3,0,0,1-1.24,1.32H650a1.24,1.24,0,1,0-2.47-.22.81.81,0,0,0,0,.22h-2.65a1.24,1.24,0,1,0-2.47-.22.81.81,0,0,0,0,.22h-2.65a1.24,1.24,0,1,0-2.47-.22.81.81,0,0,0,0,.22h-2.64a1.25,1.25,0,0,0-2.48-.32,1.71,1.71,0,0,0,0,.32h-2.64a1.24,1.24,0,1,0-2.47-.22.81.81,0,0,0,0,.22h-2.62a1.24,1.24,0,1,0-2.47-.22.81.81,0,0,0,0,.22h-2.65a1.24,1.24,0,1,0-2.47-.22.81.81,0,0,0,0,.22H614.2a1.3,1.3,0,0,1-1.24-1.36h0v-1.47Z"/></g><g id="freepik--store-3--inject-60"><rect class="cls-11" x="372.78" y="174.08" width="140.73" height="140.73"/><rect class="cls-8" x="370.52" y="310.56" width="145.16" height="4.24"/><rect class="cls-8" x="370.56" y="169.9" width="145.16" height="4.24"/><rect class="cls-3" x="384.16" y="296.64" width="9.93" height="4.2"/><rect class="cls-3" x="378.62" y="301.93" width="9.93" height="4.2"/><rect class="cls-3" x="389.7" y="301.93" width="9.93" height="4.2"/><rect class="cls-3" x="492.2" y="301.93" width="9.93" height="4.2"/><rect class="cls-3" x="492.2" y="182.76" width="9.93" height="4.2"/><rect class="cls-3" x="497.74" y="188.05" width="9.93" height="4.2"/><rect class="cls-3" x="378.62" y="182.77" width="9.93" height="4.2"/><rect class="cls-3" x="410.18" y="228.28" width="9.93" height="4.2"/><rect class="cls-3" x="415.72" y="223" width="9.93" height="4.2"/><rect class="cls-8" x="381.1" y="126.16" width="124.09" height="4.24"/><rect class="cls-3" x="384.24" y="130.31" width="117.82" height="39.59"/><rect class="cls-8" x="389.7" y="145.29" width="9.93" height="4.2"/><rect class="cls-8" x="395.24" y="139.99" width="9.93" height="4.2"/><rect class="cls-8" x="389.7" y="145.29" width="9.93" height="4.2"/><rect class="cls-8" x="395.24" y="155.87" width="9.93" height="4.2"/><rect class="cls-8" x="454.54" y="155.87" width="9.93" height="4.2"/><rect class="cls-8" x="481.12" y="140.26" width="9.93" height="4.2"/><rect class="cls-8" x="475.58" y="135.05" width="9.93" height="4.2"/><rect class="cls-2" x="397.9" y="136.75" width="17.44" height="26.71"/><rect class="cls-9" x="399.32" y="138.17" width="14.6" height="23.87"/><g class="cls-7"><polygon class="cls-2" points="413.51 138.17 399.32 152.36 399.32 141.68 402.83 138.17 413.51 138.17"/><polygon class="cls-2" points="413.93 156.59 413.93 162.04 408.47 162.04 413.93 156.59"/><polygon class="cls-2" points="413.93 151.91 413.93 154.16 406.05 162.04 403.8 162.04 413.93 151.91"/><polygon class="cls-2" points="400.57 138.17 399.32 139.42 399.32 138.17 400.57 138.17"/></g><rect class="cls-2" x="399.32" y="154.41" width="14.6" height="1.42"/><rect class="cls-2" x="434.42" y="136.75" width="17.44" height="26.71"/><rect class="cls-9" x="435.84" y="138.17" width="14.6" height="23.87"/><g class="cls-7"><polygon class="cls-2" points="450.03 138.17 435.84 152.36 435.84 141.68 439.35 138.17 450.03 138.17"/><polygon class="cls-2" points="450.45 156.59 450.45 162.04 444.99 162.04 450.45 156.59"/><polygon class="cls-2" points="450.45 151.91 450.45 154.16 442.57 162.04 440.32 162.04 450.45 151.91"/><polygon class="cls-2" points="437.09 138.17 435.84 139.42 435.84 138.17 437.09 138.17"/></g><rect class="cls-2" x="435.84" y="154.41" width="14.6" height="1.42"/><rect class="cls-2" x="470.95" y="136.75" width="17.44" height="26.71"/><rect class="cls-9" x="472.37" y="138.17" width="14.6" height="23.87"/><g class="cls-7"><polygon class="cls-2" points="486.56 138.17 472.37 152.36 472.37 141.68 475.88 138.17 486.56 138.17"/><polygon class="cls-2" points="486.98 156.59 486.98 162.04 481.52 162.04 486.98 156.59"/><polygon class="cls-2" points="486.98 151.91 486.98 154.16 479.1 162.04 476.85 162.04 486.98 151.91"/><polygon class="cls-2" points="473.62 138.17 472.37 139.42 472.37 138.17 473.62 138.17"/></g><rect class="cls-2" x="472.37" y="154.41" width="14.6" height="1.42"/><rect class="cls-2" x="380.86" y="236.15" width="33.62" height="78.6"/><rect class="cls-9" x="385.86" y="241.27" width="23.62" height="53"/><g class="cls-7"><polygon class="cls-2" points="409.48 241.27 409.48 245.93 385.86 269.55 385.86 258.36 402.94 241.27 409.48 241.27"/><polygon class="cls-2" points="409.48 265.68 409.48 276.86 392.11 294.27 385.86 294.27 385.86 289.33 409.48 265.68"/><polygon class="cls-2" points="409.48 260.77 409.48 263.13 385.86 286.79 385.86 284.42 409.48 260.77"/><polygon class="cls-2" points="400.57 241.27 385.86 255.98 385.86 251.35 395.94 241.27 400.57 241.27"/></g><rect class="cls-8" x="410.98" y="276.93" width="1.63" height="8.84"/><rect class="cls-1" x="385.86" y="279.47" width="23.62" height="3.76"/><rect class="cls-2" x="423.6" y="236.15" width="81.79" height="59.58"/><rect class="cls-9" x="425.92" y="238.47" width="77.14" height="54.92"/><g class="cls-7"><polygon class="cls-2" points="503.06 277.85 503.06 289.03 498.7 293.39 487.51 293.39 503.06 277.85"/><polygon class="cls-2" points="473.39 238.47 425.92 285.94 425.92 274.75 462.21 238.47 473.39 238.47"/><polygon class="cls-2" points="480.36 238.47 425.92 292.91 425.92 290.54 478 238.47 480.36 238.47"/><polygon class="cls-2" points="503.06 259.86 503.06 262.21 471.88 293.39 469.52 293.39 503.06 259.86"/><polygon class="cls-2" points="503.06 293.29 503.06 293.39 502.96 293.39 503.06 293.29"/><polygon class="cls-2" points="452.51 238.47 425.92 265.06 425.92 260.43 447.88 238.47 452.51 238.47"/></g><ellipse class="cls-4" cx="443.12" cy="205.47" rx="58.13" ry="20.39"/><path class="cls-2" d="M443.12,222.24c-30,0-54.43-7.53-54.43-16.77s24.42-16.78,54.43-16.78,54.43,7.53,54.43,16.78S473.14,222.24,443.12,222.24Zm0-33.3c-29.87,0-54.18,7.41-54.18,16.53S413.25,222,443.12,222s54.18-7.41,54.18-16.52-24.3-16.55-54.18-16.55Z"/><path class="cls-2" d="M402.14,210.11H397.5a.31.31,0,0,1-.26-.35h0l1.47-8.31a.3.3,0,0,1,.33-.26h0a.32.32,0,0,1,.25.36l-1.4,8h4.22a.33.33,0,0,1,.32.31A.3.3,0,0,1,402.14,210.11Z"/><path class="cls-2" d="M406.18,207.77,405,209.93a.31.31,0,0,1-.27.17.38.38,0,0,1-.15,0,.34.34,0,0,1-.13-.42l4.6-8.32a.3.3,0,0,1,.28-.17.33.33,0,0,1,.32.26l1.66,8.31a.34.34,0,0,1-.24.38H411a.3.3,0,0,1-.3-.26l-.41-2.07Zm3-5.44-2.67,4.81h3.63Z"/><path class="cls-2" d="M421,201.51l-.9,5a4.4,4.4,0,0,1-4.17,3.56h0a3.11,3.11,0,0,1-2.2-.87,3,3,0,0,1-.87-2.17,3.18,3.18,0,0,1,.06-.62l.88-5a.32.32,0,0,1,.36-.26.32.32,0,0,1,.26.37h0l-.89,5a3.05,3.05,0,0,0-.05.52,2.37,2.37,0,0,0,2.32,2.42h.15a3.8,3.8,0,0,0,3.56-3l.89-5a.3.3,0,0,1,.6,0Z"/><path class="cls-2" d="M424.54,201.44h0a.32.32,0,0,1,.15-.25.31.31,0,0,1,.41.11v0l4.11,7.54,1.31-7.4a.31.31,0,0,1,.35-.26.32.32,0,0,1,.26.37l-1.46,8.26a.3.3,0,0,1-.3.26h-.05a.31.31,0,0,1-.23-.15,0,0,0,0,0,0-.05L425,202.4l-1.32,7.43a.3.3,0,0,1-.31.26h0a.32.32,0,0,1-.25-.36Z"/><path class="cls-2" d="M433.05,209.74l1.47-8.32a.29.29,0,0,1,.3-.25h1.68a3.8,3.8,0,0,1,2.73,1.07,3.69,3.69,0,0,1,1.06,2.67q0,.39-.06.78a5.5,5.5,0,0,1-5.2,4.42H433.3A.32.32,0,0,1,433.05,209.74Zm.69-.26H435a4.87,4.87,0,0,0,4.58-3.89,3.82,3.82,0,0,0,.05-.68,3,3,0,0,0-2.87-3.12h-1.7Z"/><path class="cls-2" d="M446.29,206.65a2.73,2.73,0,0,0-.85-.39h-2.27l-.62,3.58a.33.33,0,0,1-.31.26.06.06,0,0,1-.06,0,.32.32,0,0,1-.26-.36l1.51-8.33a.33.33,0,0,1,.32-.26h2.52a2.19,2.19,0,0,1,1.57.63,2.15,2.15,0,0,1,.62,1.53,3.38,3.38,0,0,1,0,.45,3.17,3.17,0,0,1-1.88,2.29,1.9,1.9,0,0,1,1,1.67v.42a3.46,3.46,0,0,0-.09.78,1,1,0,0,0,.06.41.33.33,0,0,1,.33.23.31.31,0,0,1-.21.38h-.14a.62.62,0,0,1-.46-.26,1.37,1.37,0,0,1-.19-.79A6.54,6.54,0,0,1,447,208a1.61,1.61,0,0,0,0-.31A1.31,1.31,0,0,0,446.29,206.65Zm-3-1h2.14a2.5,2.5,0,0,0,2.33-2,2,2,0,0,0,0-.35,1.49,1.49,0,0,0-1.45-1.53h-2.38Z"/><path class="cls-2" d="M457.13,202.23a3.78,3.78,0,0,1,1,2.63,4.58,4.58,0,0,1-.08.83l-.3-.06.3.06a5.33,5.33,0,0,1-4.95,4.41,3.51,3.51,0,0,1-2.57-1.09,3.79,3.79,0,0,1-1-2.64,4.58,4.58,0,0,1,.08-.83,5.36,5.36,0,0,1,5-4.42A3.48,3.48,0,0,1,457.13,202.23Zm.37,2.63a2.89,2.89,0,0,0-2.71-3.07h-.22a4.73,4.73,0,0,0-4.32,3.91c0,.24-.05.47-.06.71a2.92,2.92,0,0,0,2.73,3.08h.21a4.74,4.74,0,0,0,4.34-3.91A4.22,4.22,0,0,0,457.5,204.86Z"/><path class="cls-2" d="M460.17,205.65a.23.23,0,0,1,.23-.23h2.73a.24.24,0,0,1,.25.23h0a.26.26,0,0,1-.25.26h-2.7a.24.24,0,0,1-.26-.22Z"/><path class="cls-2" d="M472.69,209.75l1.29-7.27-3.56,4a.31.31,0,0,1-.24.1h0a.3.3,0,0,1-.27-.16l-2.17-4-1.31,7.43a.3.3,0,0,1-.31.26h-.06a.32.32,0,0,1-.25-.36l1.46-8.31a.3.3,0,0,1,.32-.26.33.33,0,0,1,.3.15l2.37,4.4,4-4.45a.28.28,0,0,1,.24-.1h.06a.3.3,0,0,1,.26.33v0l-1.47,8.31a.29.29,0,0,1-.3.26H473a.32.32,0,0,1-.3-.34Z"/><path class="cls-2" d="M477.88,207.77l-1.18,2.16a.33.33,0,0,1-.27.17.38.38,0,0,1-.15,0,.31.31,0,0,1-.13-.42h0l4.6-8.32a.3.3,0,0,1,.28-.17.33.33,0,0,1,.32.26l1.66,8.31a.33.33,0,0,1-.25.38h-.06a.32.32,0,0,1-.31-.26l-.41-2.07Zm3-5.44-2.67,4.81h3.63Z"/><path class="cls-2" d="M484.43,209.71l1.39-7.94h-2.63a.32.32,0,0,1-.26-.37.32.32,0,0,1,.26-.26h6a.32.32,0,0,1,.26.37.32.32,0,0,1-.26.26h-2.76L485,209.83a.31.31,0,0,1-.31.25h0a.28.28,0,0,1-.28-.3A.17.17,0,0,1,484.43,209.71Z"/></g><g id="freepik--store-2--inject-60"><rect class="cls-5" x="238.17" y="157.02" width="134.61" height="157.79"/><rect class="cls-6" x="347.54" y="172.02" width="9.93" height="4.2"/><rect class="cls-6" x="353.08" y="166.72" width="9.93" height="4.2"/><rect class="cls-6" x="342" y="166.72" width="9.93" height="4.2"/><rect class="cls-6" x="253.49" y="166.72" width="9.93" height="4.2"/><rect class="cls-6" x="253.49" y="285.89" width="9.93" height="4.2"/><rect class="cls-6" x="247.95" y="280.6" width="9.93" height="4.2"/><rect class="cls-6" x="353.08" y="285.89" width="9.93" height="4.2"/><rect class="cls-6" x="331.52" y="216.37" width="9.93" height="4.2"/><rect class="cls-6" x="325.98" y="221.66" width="9.93" height="4.2"/><rect class="cls-5" x="234.71" y="205.23" width="141.54" height="4.24"/><rect class="cls-6" x="234.71" y="205.23" width="141.54" height="4.24"/><rect class="cls-5" x="234.71" y="182.91" width="141.54" height="4.24"/><rect class="cls-6" x="234.71" y="182.91" width="141.54" height="4.24"/><rect class="cls-2" x="238.17" y="187.15" width="134.61" height="18.08"/><path class="cls-4" d="M278,200.78h0a.31.31,0,0,1-.31-.31v-8.31a.32.32,0,0,1,.37-.26.32.32,0,0,1,.26.26v8h4.33a.32.32,0,0,1,.11.63.2.2,0,0,1-.11,0Z"/><path class="cls-4" d="M286.37,192.16a.32.32,0,0,1,.37-.26.32.32,0,0,1,.26.26v8.31a.32.32,0,0,1-.37.26.32.32,0,0,1-.26-.26Z"/><path class="cls-4" d="M291.52,192.16a.31.31,0,0,1,.31-.3h2a2.24,2.24,0,0,1,2.25,2.23h0a2.21,2.21,0,0,1-.87,1.73,2.54,2.54,0,0,1-.81,5h-2.6a.29.29,0,0,1-.3-.3h0Zm2.33,3.51a1.6,1.6,0,0,0,.25-3.19h-2v3.19Zm.57,4.48a1.93,1.93,0,0,0,.28-3.85,1.31,1.31,0,0,0-.28,0h-2.27v3.85Z"/><path class="cls-4" d="M305,198.76a1.59,1.59,0,0,0-.74-1.35,2.81,2.81,0,0,0-1-.44H301v3.53a.32.32,0,0,1-.37.26.32.32,0,0,1-.26-.26v-8.31a.3.3,0,0,1,.28-.3h2.59a2.54,2.54,0,0,1,1.09,4.85.31.31,0,0,0,.13.06,2.27,2.27,0,0,1,1.21,2,3.38,3.38,0,0,0,.12,1,.46.46,0,0,0,.13.21.35.35,0,0,1,.35.21.34.34,0,0,1-.21.4h-.15a.73.73,0,0,1-.58-.41A3.17,3.17,0,0,1,305,198.76Zm-1.81-6.28H301v3.85h2.29a1.93,1.93,0,0,0-.05-3.85Z"/><path class="cls-4" d="M314.84,198.47h-4.13l-.8,2.1a.32.32,0,0,1-.3.21h-.12a.31.31,0,0,1-.18-.4l3.15-8.27a.35.35,0,0,1,.31-.2.3.3,0,0,1,.31.2l3.14,8.27a.29.29,0,0,1-.16.39h-.12a.34.34,0,0,1-.3-.21Zm-3.9-.62h3.66l-1.82-4.8Z"/><path class="cls-4" d="M324,198.76a1.61,1.61,0,0,0-.74-1.35,2.7,2.7,0,0,0-1.05-.44H320v3.53a.32.32,0,0,1-.33.31h0a.33.33,0,0,1-.31-.31v-8.31a.31.31,0,0,1,.29-.3h2.59a2.54,2.54,0,0,1,1.08,4.85.31.31,0,0,0,.13.06,2.26,2.26,0,0,1,1.22,2,3.74,3.74,0,0,0,.11,1,.57.57,0,0,0,.13.21.32.32,0,0,1,.34.3.33.33,0,0,1-.19.31h-.16a.73.73,0,0,1-.58-.41A3.28,3.28,0,0,1,324,198.76Zm-1.81-6.28H320v3.85h2.29a1.93,1.93,0,0,0,0-3.85Z"/><path class="cls-4" d="M331.08,196.49l-3-4.09a.31.31,0,0,1,.06-.43.29.29,0,0,1,.42,0l0,0,2.83,3.84,2.85-3.84a.31.31,0,0,1,.42-.07l0,0a.29.29,0,0,1,.08.4l0,0-3,4.07v4a.31.31,0,0,1-.62,0Z"/><rect class="cls-5" x="234.71" y="154.91" width="141.54" height="4.24"/><rect class="cls-6" x="234.71" y="154.91" width="141.54" height="4.24"/><rect class="cls-5" x="234.71" y="310.57" width="141.54" height="4.24"/><rect class="cls-6" x="234.71" y="310.57" width="141.54" height="4.24"/><rect class="cls-4" x="334.22" y="213.16" width="33.62" height="19.03"/><g class="cls-7"><polygon class="cls-2" points="367.84 213.16 367.84 222.2 357.85 232.19 346.67 232.19 365.69 213.16 367.84 213.16"/><polygon class="cls-2" points="354.91 213.16 335.88 232.19 334.22 232.19 334.22 231.48 352.55 213.16 354.91 213.16"/><polygon class="cls-2" points="346.62 213.16 334.22 225.56 334.22 220.93 341.99 213.16 346.62 213.16"/><polygon class="cls-2" points="367.84 225.42 367.84 230.05 365.7 232.19 361.07 232.19 367.84 225.42"/></g><rect class="cls-9" x="334.22" y="236.21" width="33.62" height="78.6"/><rect class="cls-4" x="339.22" y="241.34" width="23.62" height="38.6"/><rect class="cls-2" x="339.22" y="241.34" width="23.62" height="0.87"/><rect class="cls-2" x="339.22" y="242.57" width="23.62" height="0.87"/><rect class="cls-2" x="339.22" y="243.8" width="23.62" height="0.87"/><rect class="cls-2" x="339.22" y="245.02" width="23.62" height="0.87"/><rect class="cls-2" x="339.22" y="246.25" width="23.62" height="0.87"/><rect class="cls-2" x="339.22" y="247.48" width="23.62" height="0.87"/><rect class="cls-2" x="339.22" y="248.71" width="23.62" height="0.87"/><rect class="cls-2" x="339.22" y="249.94" width="23.62" height="0.87"/><rect class="cls-2" x="339.22" y="251.17" width="23.62" height="0.87"/><rect class="cls-2" x="339.22" y="252.4" width="23.62" height="0.87"/><rect class="cls-2" x="339.22" y="253.63" width="23.62" height="0.87"/><rect class="cls-2" x="339.22" y="254.86" width="23.62" height="0.87"/><rect class="cls-2" x="339.22" y="256.09" width="23.62" height="0.87"/><rect class="cls-2" x="339.22" y="257.32" width="23.62" height="0.87"/><rect class="cls-2" x="339.22" y="258.55" width="23.62" height="0.87"/><rect class="cls-2" x="339.22" y="259.78" width="23.62" height="0.87"/><rect class="cls-2" x="339.22" y="261.01" width="23.62" height="0.87"/><rect class="cls-2" x="339.22" y="262.24" width="23.62" height="0.87"/><rect class="cls-2" x="339.22" y="263.47" width="23.62" height="0.87"/><rect class="cls-2" x="339.22" y="264.7" width="23.62" height="0.87"/><rect class="cls-2" x="339.22" y="265.92" width="23.62" height="0.87"/><rect class="cls-2" x="339.22" y="267.15" width="23.62" height="0.87"/><rect class="cls-2" x="339.22" y="268.38" width="23.62" height="0.87"/><g class="cls-7"><polygon class="cls-2" points="362.84 241.34 362.84 245.99 339.22 269.61 339.22 258.42 356.31 241.34 362.84 241.34"/><polygon class="cls-2" points="362.84 265.74 362.84 276.92 359.82 279.94 348.64 279.94 362.84 265.74"/><polygon class="cls-2" points="362.84 260.84 362.84 263.2 346.1 279.94 343.74 279.94 362.84 260.84"/><polygon class="cls-2" points="353.93 241.34 339.22 256.04 339.22 251.41 349.3 241.34 353.93 241.34"/></g><rect class="cls-4" x="341.33" y="284.3" width="17.7" height="4.14"/><rect class="cls-8" x="363.51" y="281.79" width="2.07" height="6.66"/><path class="cls-10" d="M339.22,308.25c-.07-1.13-.11-2.26-.16-3.39s-.08-2.27-.11-3.4c-.06-2.26-.1-4.53-.12-6.79v-.39h11.05c1.77,0,3.56.07,5.33.13.89,0,1.78.06,2.67.1s1.78.07,2.67.13l-2.67.13c-.89,0-1.78.08-2.67.1-1.77.06-3.55.1-5.33.12s-3.55.05-5.33.05h-5.33l.39-.39c0,2.26-.05,4.53-.11,6.79,0,1.13-.07,2.27-.12,3.4S339.29,307.12,339.22,308.25Z"/><path class="cls-10" d="M362.84,294.67c.07,1.13.11,2.26.16,3.4s.08,2.26.12,3.39c.06,2.27.09,4.53.12,6.79v.4H352.07c-1.8,0-3.59-.07-5.38-.12l-2.7-.11c-.89,0-1.79-.07-2.69-.13l2.69-.13c.9,0,1.8-.08,2.7-.1,1.79-.06,3.59-.09,5.38-.12s3.59-.05,5.39-.05h5.38l-.39.39c0-2.26.06-4.52.12-6.79,0-1.13.06-2.26.12-3.39S362.77,295.8,362.84,294.67Z"/><path class="cls-10" d="M342.28,305.69c-.12-1.41-.19-2.82-.25-4.23,0-.7,0-1.41-.08-2.11s0-1.41,0-2.12v-.37h4.33c1.31,0,2.63,0,4,.05s2.63.06,3.95.12,2.63.13,3.95.24c-1.32.11-2.63.19-3.95.24s-2.63.1-3.95.13-2.63,0-4,0h-3.95l.38-.38c0,.71,0,1.41,0,2.12s0,1.41-.07,2.11C342.48,302.87,342.43,304.28,342.28,305.69Z"/><path class="cls-10" d="M359.78,297.23c.12,1.41.2,2.82.25,4.23s.1,2.82.13,4.23v.37h-8.38c-1.34,0-2.66-.07-4-.12s-2.66-.14-4-.25c1.33-.11,2.67-.19,4-.24s2.67-.09,4-.12,2.66,0,4-.05,2.66,0,4,0l-.37.37q0-2.11.12-4.23C359.59,300,359.67,298.64,359.78,297.23Z"/><rect class="cls-2" x="243.9" y="211" width="83.49" height="75.54"/><rect class="cls-4" x="245.98" y="213.16" width="79.34" height="71.22"/><g class="cls-7"><polygon class="cls-2" points="325.32 261.38 325.32 272.56 313.5 284.38 302.31 284.38 325.32 261.38"/><polygon class="cls-2" points="304.49 213.16 245.98 271.67 245.98 260.49 293.31 213.16 304.49 213.16"/><polygon class="cls-2" points="311.46 213.16 245.98 278.64 245.98 276.28 309.1 213.16 311.46 213.16"/><polygon class="cls-2" points="325.32 243.39 325.32 245.75 286.68 284.38 284.33 284.38 325.32 243.39"/><polygon class="cls-2" points="325.32 276.83 325.32 281.45 322.39 284.38 317.76 284.38 325.32 276.83"/><polygon class="cls-2" points="283.61 213.16 245.98 250.79 245.98 246.16 278.98 213.16 283.61 213.16"/></g><rect class="cls-4" x="241.3" y="227.79" width="0.41" height="29.58" transform="translate(-34.69 40.38) rotate(-8.92)"/><path class="cls-2" d="M244.63,257.18a.8.8,0,1,1-.8-.8h0A.8.8,0,0,1,244.63,257.18Z"/><rect class="cls-4" x="314.89" y="242.35" width="29.58" height="0.41" transform="translate(39.14 530.84) rotate(-81.12)"/><path class="cls-2" d="M326.59,257.18a.8.8,0,1,0,.8-.8h0A.8.8,0,0,0,326.59,257.18Z"/><path class="cls-9" d="M334.43,227.67H236.89c5.84-10.12,7-18.2,7-18.2h83.54S328.57,217.55,334.43,227.67Z"/><path class="cls-10" d="M334.43,227.67v2.15a1.91,1.91,0,0,1-1.81,2h-3.89a1.91,1.91,0,0,1-1.82-2h0a1.91,1.91,0,0,1-1.81,2h-3.88a1.91,1.91,0,0,1-1.81-2,1.91,1.91,0,0,1-1.81,2h-3.88a1.91,1.91,0,0,1-1.81-2,1.91,1.91,0,0,1-1.81,2h-3.88a1.91,1.91,0,0,1-1.81-2,1.91,1.91,0,0,1-1.82,2h-3.87a1.91,1.91,0,0,1-1.81-2,1.91,1.91,0,0,1-1.82,2h-3.88a1.91,1.91,0,0,1-1.81-2,1.91,1.91,0,0,1-1.81,2h-3.88a1.91,1.91,0,0,1-1.81-2,1.91,1.91,0,0,1-1.81,2h-3.88a1.91,1.91,0,0,1-1.81-2,1.91,1.91,0,0,1-1.81,2h-3.88a1.91,1.91,0,0,1-1.81-2,1.91,1.91,0,0,1-1.82,2h-3.87a1.91,1.91,0,0,1-1.82-2h0a1.91,1.91,0,0,1-1.81,2h-3.87a1.91,1.91,0,0,1-1.82-2h0a1.91,1.91,0,0,1-1.81,2h-3.87a1.91,1.91,0,0,1-1.82-2h0a1.91,1.91,0,0,1-1.81,2H238.7a1.91,1.91,0,0,1-1.81-2v-2.15Z"/><path class="cls-2" d="M244.43,229.82a19.23,19.23,0,0,0-.08-2.15v0c.84-1.38,1.59-2.82,2.29-4.28s1.31-3,1.89-4.46a44.15,44.15,0,0,0,1.42-4.63l.28-1.18c.08-.4.13-.8.21-1.2.18-.79.22-1.6.35-2.4a27.08,27.08,0,0,1-.55,4.84,34.55,34.55,0,0,1-1.34,4.7A43.42,43.42,0,0,1,247,223.5c-.36.73-.75,1.44-1.17,2.15s-.83,1.4-1.3,2.06h0C244.43,228.38,244.43,229.1,244.43,229.82Z"/><path class="cls-2" d="M251.89,229.82a19.23,19.23,0,0,0-.08-2.15h0c.41-.68.79-1.38,1.15-2.09s.68-1.44,1-2.17a37.39,37.39,0,0,0,1.59-4.49,11.53,11.53,0,0,0,.32-1.15c.09-.38.21-.77.28-1.16.16-.78.34-1.55.45-2.34a44.46,44.46,0,0,0,.5-4.75,29.5,29.5,0,0,1-.21,4.79,32.79,32.79,0,0,1-2.6,9.25,26.15,26.15,0,0,1-2.34,4.2h0C252,228.38,251.93,229.1,251.89,229.82Z"/><path class="cls-2" d="M281.9,229.82c0-1.7,0-3.39,0-5.09s0-3.39.06-5.09.08-3.39.15-5.09l.11-2.54c.05-.85.09-1.7.15-2.54,0,.84,0,1.69.05,2.54v2.55c0,1.69,0,3.39-.06,5.09s-.09,3.39-.16,5.08S282,228.13,281.9,229.82Z"/><path class="cls-2" d="M289.43,229.82c-.12-1.69-.19-3.39-.26-5.09s-.1-3.39-.15-5.08-.06-3.4-.06-5.09V212c0-.85,0-1.7.05-2.54.06.84.1,1.69.15,2.54l.11,2.54c.07,1.7.11,3.39.16,5.09s0,3.39.06,5.09S289.43,228.12,289.43,229.82Z"/><path class="cls-2" d="M274.43,229.82c0-.72-.06-1.44-.09-2.15h0c.2-1.5.31-3,.44-4.53s.18-3,.27-4.54.12-3,.18-4.56l.13-4.55c.05.75.08,1.51.12,2.28s0,1.52,0,2.28c0,1.52,0,3-.07,4.56s-.18,3-.32,4.56c-.07.76-.16,1.52-.26,2.27s-.21,1.51-.36,2.26h0C274.43,228.38,274.43,229.1,274.43,229.82Z"/><path class="cls-2" d="M266.9,229.82c0-.72-.06-1.44-.09-2.15h0a28.24,28.24,0,0,0,1.14-4.43c.14-.76.26-1.51.38-2.27s.2-1.52.29-2.28c.19-1.52.28-3.05.41-4.58l.14-2.3c0-.77.06-1.54.11-2.3,0,.76.05,1.53.07,2.3s0,1.54,0,2.31a53.42,53.42,0,0,1-1,9.19c-.15.75-.34,1.5-.56,2.24a15.41,15.41,0,0,1-.78,2.19h0C267,228.38,266.93,229.1,266.9,229.82Z"/><path class="cls-2" d="M259.43,229.82a19.23,19.23,0,0,0-.08-2.15v0a28.21,28.21,0,0,0,1.68-4.34c.47-1.49.81-3,1.13-4.53s.52-3.07.7-4.62c.11-.77.13-1.55.22-2.32s.08-1.56.14-2.34V213a6.57,6.57,0,0,1-.07,1.17l-.09,1.17a9.13,9.13,0,0,1-.15,1.17c-.09.78-.23,1.55-.36,2.33a37.68,37.68,0,0,1-1.18,4.56c-.24.75-.52,1.48-.83,2.2a17.85,17.85,0,0,1-1,2.12h0A13.25,13.25,0,0,0,259.43,229.82Z"/><path class="cls-2" d="M326.91,229.82c0-.72-.05-1.44-.08-2.15h0c-.47-.66-.89-1.36-1.3-2.06s-.81-1.42-1.17-2.15a42.7,42.7,0,0,1-1.93-4.45,33.13,33.13,0,0,1-1.33-4.7,25.37,25.37,0,0,1-.55-4.84c.12.8.17,1.61.34,2.4.08.4.13.8.22,1.2l.27,1.18a41.3,41.3,0,0,0,1.43,4.63c.57,1.51,1.17,3,1.88,4.46s1.45,2.9,2.29,4.28v0C327,228.38,327,229.1,326.91,229.82Z"/><path class="cls-2" d="M319.43,229.82c0-.72-.06-1.44-.08-2.15h0a26.15,26.15,0,0,1-2.34-4.2,31.82,31.82,0,0,1-1.64-4.53,30.24,30.24,0,0,1-1-4.72,29.5,29.5,0,0,1-.21-4.79,47.2,47.2,0,0,0,.5,4.75c.12.79.3,1.56.45,2.34.08.39.19.78.28,1.16s.2.77.32,1.15a37.39,37.39,0,0,0,1.59,4.49c.32.73.64,1.46,1,2.17s.75,1.41,1.16,2.09v0C319.43,228.38,319.43,229.1,319.43,229.82Z"/><path class="cls-2" d="M296.91,229.82c0-.72-.06-1.44-.09-2.15h0c-.15-.75-.25-1.5-.36-2.26s-.19-1.51-.26-2.27c-.13-1.51-.26-3-.31-4.56s-.11-3-.08-4.56c0-.76,0-1.52.05-2.28s.06-1.53.11-2.28l.13,4.55c.06,1.52.1,3,.18,4.56s.15,3,.28,4.54.23,3,.43,4.53h0C297,228.38,297,229.1,296.91,229.82Z"/><path class="cls-2" d="M304.43,229.82c0-.72-.06-1.44-.09-2.15h0a15.41,15.41,0,0,1-.78-2.19c-.21-.74-.4-1.49-.56-2.24a44,44,0,0,1-.7-4.58c-.17-1.53-.28-3.07-.32-4.61v-2.31c0-.77,0-1.54.07-2.3.05.76.08,1.53.12,2.3l.13,2.3c.13,1.53.22,3.06.42,4.58.08.76.19,1.52.29,2.28s.23,1.51.38,2.27a26.89,26.89,0,0,0,1.13,4.43h0A18.81,18.81,0,0,0,304.43,229.82Z"/><path class="cls-2" d="M311.91,229.82c0-.72-.06-1.44-.08-2.15h0a17.85,17.85,0,0,1-1-2.12,21.59,21.59,0,0,1-.83-2.2,35.91,35.91,0,0,1-1.18-4.56c-.13-.78-.28-1.55-.37-2.33-.05-.39-.11-.77-.14-1.17l-.1-1.17a11.46,11.46,0,0,0-.06-1.17v-3.52c.06.78.09,1.56.15,2.34s.11,1.55.21,2.32c.18,1.55.4,3.1.7,4.62a44.81,44.81,0,0,0,1.14,4.53,27.18,27.18,0,0,0,1.67,4.34v0C312,228.38,312,229.1,311.91,229.82Z"/><g class="cls-7"><path d="M244.31,304.8c-.08-1.14-.11-2.27-.16-3.4s-.08-2.26-.12-3.4c-.06-2.26-.09-4.53-.12-6.79v-.39H255c1.78,0,3.55.07,5.33.13.89,0,1.78.07,2.66.1l2.67.13c-.89.06-1.78.09-2.67.13s-1.77.08-2.66.1c-1.78.06-3.56.1-5.33.13s-3.56,0-5.33,0h-5.33l.39-.39c0,2.26-.06,4.53-.12,6.79,0,1.14-.06,2.27-.12,3.4S244.43,303.66,244.31,304.8Z"/><path d="M267.93,291.21c.07,1.13.11,2.26.16,3.4s.08,2.26.11,3.39c.06,2.27.09,4.53.12,6.8v.39h-5.78c-1.8,0-3.59,0-5.38-.05s-3.59-.06-5.39-.12l-2.69-.11-2.7-.12c.9-.06,1.8-.1,2.7-.13l2.69-.11c1.8-.06,3.59-.09,5.39-.12s3.59-.05,5.38-.05h5.39l-.39.4c0-2.27,0-4.53.11-6.8,0-1.13.07-2.26.12-3.39S267.86,292.34,267.93,291.21Z"/></g><g class="cls-7"><path d="M247.37,302.23c-.06-1.41-.11-2.82-.13-4.23v-4.41h8.09c1.31,0,2.63,0,3.94.06s2.64.07,4,.12c-1.31.05-2.63.1-4,.12s-2.63.06-3.94.06h-7.9l.18-.18V298C247.43,299.41,247.43,300.82,247.37,302.23Z"/><path d="M264.87,293.77c.05,1.41.1,2.82.12,4.23s.06,2.82.06,4.23v.18h-8.18c-1.33,0-2.66,0-4-.06s-2.66-.06-4-.12c1.33-.05,2.66-.09,4-.11s2.66-.07,4-.07h8l-.19.18c0-1.41,0-2.82.06-4.23S264.81,295.18,264.87,293.77Z"/></g><g class="cls-7"><path d="M276.9,302.23c0-1.41-.1-2.82-.12-4.23v-4.41h8.08c1.32,0,2.63,0,3.95.06l3.95.12c-1.32.05-2.64.1-3.95.12s-2.63.06-3.95.06H277l.18-.18V298C277,299.41,277,300.82,276.9,302.23Z"/><path d="M294.43,293.77c0,1.41.1,2.82.12,4.23s.06,2.82.06,4.23v.18h-8.18c-1.33,0-2.66,0-4-.06s-2.66-.06-4-.12c1.33-.05,2.66-.09,4-.11s2.66-.07,4-.07h8l-.18.18c0-1.41,0-2.82.06-4.23S294.35,295.18,294.43,293.77Z"/></g><g class="cls-7"><path d="M273.84,304.8c-.07-1.14-.11-2.27-.16-3.4s-.08-2.26-.11-3.4c-.06-2.26-.1-4.53-.12-6.79v-.39h11.06c1.77,0,3.56.07,5.33.13.89,0,1.78.07,2.67.1l2.66.13c-.88.06-1.77.09-2.66.13s-1.78.08-2.67.1c-1.77.06-3.55.1-5.33.13s-3.55,0-5.33,0h-5.33l.39-.39c0,2.26-.06,4.53-.11,6.79,0,1.14-.07,2.27-.12,3.4S273.91,303.66,273.84,304.8Z"/><path d="M297.43,291.21c.07,1.13.11,2.26.16,3.4s.08,2.26.12,3.39c.06,2.27.09,4.53.12,6.8v.39h-5.78c-1.79,0-3.59,0-5.39-.05s-3.59-.06-5.38-.12l-2.7-.11c-.9,0-1.79-.07-2.69-.12.9-.06,1.79-.1,2.69-.13l2.7-.11c1.79-.06,3.59-.09,5.38-.12s3.59-.05,5.39-.05h5.38l-.39.4c0-2.27.06-4.53.12-6.8,0-1.13.06-2.26.11-3.39S297.43,292.34,297.43,291.21Z"/></g><g class="cls-7"><path d="M306.43,302.23c-.05-1.41-.1-2.82-.12-4.23v-4.41h8c1.32,0,2.63,0,4,.06s2.63.07,3.95.12c-1.32.05-2.63.1-3.95.12s-2.63.06-4,.06l-3.9.06h-3.95l.19-.18v4.23C306.53,299.41,306.49,300.82,306.43,302.23Z"/><path d="M323.93,293.77c.06,1.41.1,2.82.13,4.23s.05,2.82.06,4.23v.18h-8.19c-1.33,0-2.66,0-4-.06s-2.66-.06-4-.12c1.33-.05,2.66-.09,4-.11s2.66-.07,4-.07h8l-.18.18c0-1.41,0-2.82.06-4.23S323.88,295.18,323.93,293.77Z"/></g><g class="cls-7"><path d="M303.43,304.8c-.07-1.14-.11-2.27-.16-3.4s-.08-2.26-.12-3.4c-.06-2.26-.09-4.53-.12-6.79v-.39h11.06c1.78,0,3.55.07,5.33.13.89,0,1.78.07,2.66.1l2.67.13c-.89.06-1.78.09-2.67.13s-1.77.08-2.66.1c-1.78.06-3.55.1-5.33.13s-3.56,0-5.33,0h-5.33l.39-.39c0,2.26-.06,4.53-.12,6.79,0,1.14-.06,2.27-.11,3.4S303.43,303.66,303.43,304.8Z"/><path d="M327,291.21c.07,1.13.11,2.26.16,3.4s.08,2.26.11,3.39c.06,2.27.1,4.53.12,6.8v.39h-5.78c-1.8,0-3.59,0-5.38-.05s-3.59-.06-5.39-.12l-2.69-.11-2.7-.12c.9-.06,1.8-.1,2.7-.13l2.69-.11c1.8-.06,3.59-.09,5.39-.12s3.59-.05,5.38-.05H327l-.39.4c0-2.27.05-4.53.11-6.8,0-1.13.07-2.26.12-3.39S326.93,292.34,327,291.21Z"/></g></g><g id="freepik--store-1--inject-60"><rect class="cls-9" x="37.31" y="134.91" width="201.29" height="179.85"/><rect class="cls-10" x="37.31" y="134.91" width="201.29" height="66.46"/><rect class="cls-10" x="50.97" y="291.43" width="9.93" height="4.2"/><rect class="cls-10" x="45.43" y="296.72" width="9.93" height="4.2"/><rect class="cls-10" x="56.51" y="296.72" width="9.93" height="4.2"/><rect class="cls-10" x="215.01" y="296.72" width="9.93" height="4.2"/><rect class="cls-10" x="215.01" y="229.79" width="9.93" height="4.2"/><rect class="cls-10" x="220.56" y="235.09" width="9.93" height="4.2"/><rect class="cls-10" x="45.43" y="229.8" width="9.93" height="4.2"/><rect class="cls-10" x="136.98" y="257.07" width="9.93" height="4.2"/><rect class="cls-10" x="142.52" y="251.78" width="9.93" height="4.2"/><rect class="cls-11" x="52.79" y="148.94" width="26.91" height="41.21"/><rect class="cls-9" x="54.99" y="151.13" width="22.53" height="36.82"/><g class="cls-7"><polygon class="cls-2" points="77.51 151.13 77.51 155.57 54.99 178.1 54.99 167.42 71.28 151.13 77.51 151.13"/><polygon class="cls-2" points="77.51 174.41 77.51 185.07 74.64 187.95 63.97 187.95 77.51 174.41"/><polygon class="cls-2" points="77.51 169.73 77.51 171.98 61.54 187.95 59.29 187.95 77.51 169.73"/><polygon class="cls-2" points="69.01 151.13 54.99 165.15 54.99 160.74 64.6 151.13 69.01 151.13"/></g><rect class="cls-11" x="54.99" y="161.68" width="22.53" height="2.19"/><rect class="cls-11" x="90.31" y="148.94" width="26.91" height="41.21"/><rect class="cls-9" x="92.5" y="151.13" width="22.53" height="36.82"/><g class="cls-7"><polygon class="cls-2" points="115.03 151.13 115.03 155.57 92.5 178.1 92.5 167.42 108.8 151.13 115.03 151.13"/><polygon class="cls-2" points="115.03 174.41 115.03 185.07 112.16 187.95 101.49 187.95 115.03 174.41"/><polygon class="cls-2" points="115.03 169.73 115.03 171.98 99.06 187.95 96.81 187.95 115.03 169.73"/><polygon class="cls-2" points="106.53 151.13 92.5 165.15 92.5 160.74 102.12 151.13 106.53 151.13"/></g><rect class="cls-11" x="92.5" y="161.68" width="22.53" height="2.19"/><rect class="cls-11" x="155.48" y="148.94" width="26.91" height="41.21"/><rect class="cls-9" x="157.67" y="151.13" width="22.53" height="36.82"/><g class="cls-7"><polygon class="cls-2" points="180.2 151.13 180.2 155.57 157.67 178.1 157.67 167.42 173.96 151.13 180.2 151.13"/><polygon class="cls-2" points="180.2 174.41 180.2 185.07 177.32 187.95 166.65 187.95 180.2 174.41"/><polygon class="cls-2" points="180.2 169.73 180.2 171.98 164.22 187.95 161.97 187.95 180.2 169.73"/><polygon class="cls-2" points="171.7 151.13 157.67 165.15 157.67 160.74 167.28 151.13 171.7 151.13"/></g><rect class="cls-11" x="157.67" y="161.68" width="22.53" height="2.19"/><rect class="cls-11" x="193" y="148.94" width="26.91" height="41.21"/><rect class="cls-9" x="195.19" y="151.13" width="22.53" height="36.82"/><g class="cls-7"><polygon class="cls-2" points="217.72 151.13 217.72 155.57 195.19 178.1 195.19 167.42 211.48 151.13 217.72 151.13"/><polygon class="cls-2" points="217.72 174.41 217.72 185.07 214.84 187.95 204.17 187.95 217.72 174.41"/><polygon class="cls-2" points="217.72 169.73 217.72 171.98 201.74 187.95 199.49 187.95 217.72 169.73"/><polygon class="cls-2" points="209.21 151.13 195.19 165.15 195.19 160.74 204.8 151.13 209.21 151.13"/></g><rect class="cls-11" x="195.19" y="161.68" width="22.53" height="2.19"/><rect class="cls-10" x="34.14" y="310.57" width="207.64" height="4.18"/><rect class="cls-9" x="34.14" y="134.94" width="207.64" height="4.18"/><rect class="cls-4" x="150.9" y="236.15" width="34.23" height="78.6"/><rect class="cls-9" x="156.75" y="242" width="22.53" height="36.82"/><g class="cls-7"><polygon class="cls-2" points="179.27 242 179.27 246.44 156.74 268.97 156.74 258.3 173.04 242 179.27 242"/><polygon class="cls-2" points="179.27 265.28 179.27 275.95 176.4 278.82 165.73 278.82 179.27 265.28"/><polygon class="cls-2" points="179.27 260.6 179.27 262.85 163.3 278.82 161.05 278.82 179.27 260.6"/><polygon class="cls-2" points="170.77 242 156.74 256.03 156.74 251.61 166.36 242 170.77 242"/></g><rect class="cls-2" x="180.79" y="282.32" width="2.07" height="9.07"/><rect class="cls-4" x="185.7" y="236.15" width="34.23" height="78.6"/><rect class="cls-9" x="191.55" y="242" width="22.53" height="36.82"/><g class="cls-7"><polygon class="cls-2" points="191.55 242 191.55 246.44 214.08 268.97 214.08 258.3 197.78 242 191.55 242"/><polygon class="cls-2" points="191.55 265.28 191.55 275.95 194.43 278.82 205.1 278.82 191.55 265.28"/><polygon class="cls-2" points="191.55 260.6 191.55 262.85 207.52 278.82 209.77 278.82 191.55 260.6"/><polygon class="cls-2" points="200.05 242 214.08 256.03 214.08 251.61 204.47 242 200.05 242"/></g><rect class="cls-2" x="187.96" y="282.32" width="2.07" height="9.07"/><rect class="cls-10" x="50.33" y="116.32" width="175.25" height="18.59"/><rect class="cls-9" x="54.94" y="119.65" width="3.22" height="12.14"/><rect class="cls-9" x="63.51" y="119.65" width="3.22" height="12.14"/><rect class="cls-9" x="72.08" y="119.65" width="3.22" height="12.14"/><rect class="cls-9" x="80.65" y="119.65" width="3.22" height="12.14"/><rect class="cls-9" x="89.22" y="119.65" width="3.22" height="12.14"/><rect class="cls-9" x="97.79" y="119.65" width="3.22" height="12.14"/><rect class="cls-9" x="106.35" y="119.65" width="3.22" height="12.14"/><rect class="cls-9" x="114.92" y="119.65" width="3.22" height="12.14"/><rect class="cls-9" x="123.49" y="119.65" width="3.22" height="12.14"/><rect class="cls-9" x="132.06" y="119.65" width="3.22" height="12.14"/><rect class="cls-9" x="140.63" y="119.65" width="3.22" height="12.14"/><rect class="cls-9" x="149.2" y="119.65" width="3.22" height="12.14"/><rect class="cls-9" x="157.77" y="119.65" width="3.22" height="12.14"/><rect class="cls-9" x="166.34" y="119.65" width="3.22" height="12.14"/><rect class="cls-9" x="174.91" y="119.65" width="3.22" height="12.14"/><rect class="cls-9" x="183.48" y="119.65" width="3.22" height="12.14"/><rect class="cls-9" x="192.05" y="119.65" width="3.22" height="12.14"/><rect class="cls-9" x="200.62" y="119.65" width="3.22" height="12.14"/><rect class="cls-9" x="209.19" y="119.65" width="3.22" height="12.14"/><rect class="cls-9" x="217.75" y="119.65" width="3.22" height="12.14"/><path class="cls-11" d="M90.82,255.17v32.48h-38V255.17a19,19,0,0,1,38,0Z"/><path class="cls-9" d="M88.63,255.17v30.29H55V255.17a16.82,16.82,0,0,1,33.64,0Z"/><path class="cls-9" d="M88.64,255.17v30.29H55V255.17a16.8,16.8,0,0,1,16.77-16.83h0a10.46,10.46,0,0,1,1.59.08,16.81,16.81,0,0,1,12.82,8.07,16.17,16.17,0,0,1,1.47,3.12,12.91,12.91,0,0,1,.53,1.84A16.64,16.64,0,0,1,88.64,255.17Z"/><rect class="cls-11" x="54.99" y="254.86" width="33.65" height="2.19"/><rect class="cls-11" x="64.59" y="237.66" width="2.19" height="17.21"/><rect class="cls-11" x="76.83" y="237.66" width="2.19" height="17.21"/><g class="cls-7"><path class="cls-2" d="M86.22,246.49,55,277.71V266.53l25.67-25.67A16.82,16.82,0,0,1,86.22,246.49Z"/><path class="cls-2" d="M88.22,251.45,55,284.68v-2.37l32.7-32.7A12.91,12.91,0,0,1,88.22,251.45Z"/><path class="cls-2" d="M73.43,238.42,55,256.83v-1.66a17.31,17.31,0,0,1,.32-3.29l13.22-13.22a17.2,17.2,0,0,1,3.28-.32C72.35,238.34,72.88,238.37,73.43,238.42Z"/></g><path class="cls-11" d="M137.65,255.17v32.48h-38V255.17a19,19,0,0,1,38,0Z"/><path class="cls-9" d="M135.43,255.17v30.29H101.81V255.17a16.83,16.83,0,1,1,33.65-.82c0,.27,0,.55,0,.82Z"/><path class="cls-9" d="M135.43,255.17v30.29H101.81V255.17a16.8,16.8,0,0,1,16.77-16.83h0a10.46,10.46,0,0,1,1.59.08A16.81,16.81,0,0,1,133,246.49a16.17,16.17,0,0,1,1.47,3.12,12.91,12.91,0,0,1,.53,1.84A16.61,16.61,0,0,1,135.43,255.17Z"/><rect class="cls-11" x="101.81" y="254.86" width="33.65" height="2.19"/><rect class="cls-11" x="111.41" y="237.65" width="2.19" height="17.21"/><rect class="cls-11" x="123.66" y="237.66" width="2.19" height="17.21"/><g class="cls-7"><path class="cls-2" d="M133,246.49l-31.23,31.22V266.53l25.67-25.67A16.82,16.82,0,0,1,133,246.49Z"/><path class="cls-2" d="M135,251.45l-33.23,33.23v-2.37l32.7-32.7A12.91,12.91,0,0,1,135,251.45Z"/><path class="cls-2" d="M120.22,238.42l-18.41,18.41v-1.66a17.31,17.31,0,0,1,.32-3.29l13.22-13.22a17.2,17.2,0,0,1,3.28-.32C119.17,238.34,119.7,238.37,120.22,238.42Z"/></g><rect class="cls-4" x="37.31" y="201.37" width="200.86" height="24.22"/><path class="cls-2" d="M85.3,213.25h0a1.7,1.7,0,0,1,3.39,0h0a1.7,1.7,0,0,1-3.39,0Z"/><path class="cls-2" d="M100.24,215.89a1.73,1.73,0,0,0-.78-1.45,3.23,3.23,0,0,0-1.11-.48H96v3.79a.34.34,0,0,1-.39.28.35.35,0,0,1-.28-.28v-8.92a.34.34,0,0,1,.3-.33h2.74a2.74,2.74,0,0,1,1.15,5.22l.14.07a2.41,2.41,0,0,1,1.28,2.13A3.79,3.79,0,0,0,101,217a.48.48,0,0,0,.13.23.35.35,0,0,1,.37.22.37.37,0,0,1-.21.44h-.2a.74.74,0,0,1-.61-.44A3.22,3.22,0,0,1,100.24,215.89Zm-1.92-6.75H96v4.14h2.48a2.07,2.07,0,1,0-.06-4.14Z"/><path class="cls-2" d="M103.9,208.8a.33.33,0,0,1,.32-.33h4.93a.34.34,0,0,1,.28.39.35.35,0,0,1-.28.28h-4.58v3.79h4a.34.34,0,0,1,.33.35h0a.33.33,0,0,1-.33.32h-4v3.78h4.58a.34.34,0,0,1,.28.39.35.35,0,0,1-.28.28h-5a.32.32,0,0,1-.3-.33Z"/><path class="cls-2" d="M111.43,216.26a.29.29,0,0,1,.41,0l0,0a5.32,5.32,0,0,0,3.14,1.23,3.68,3.68,0,0,0,2.11-.63,1.76,1.76,0,0,0,.82-1.42,1.53,1.53,0,0,0-.78-1.32,6.26,6.26,0,0,0-2.22-.78h0a6.06,6.06,0,0,1-2.26-.8,2,2,0,0,1-1-1.67,2.24,2.24,0,0,1,1-1.8,3.91,3.91,0,0,1,2.32-.69,5.29,5.29,0,0,1,3,1.1.31.31,0,0,1,.08.43.28.28,0,0,1-.38.1l0,0a4.73,4.73,0,0,0-2.62-1,3.45,3.45,0,0,0-2,.57,1.65,1.65,0,0,0-.75,1.32A1.41,1.41,0,0,0,113,212a5.79,5.79,0,0,0,2,.73h0a6.39,6.39,0,0,1,2.43.87,2.17,2.17,0,0,1,1.06,1.81,2.4,2.4,0,0,1-1.08,1.91,4.19,4.19,0,0,1-2.47.76,6,6,0,0,1-3.53-1.39.3.3,0,0,1,0-.44Z"/><path class="cls-2" d="M123.15,209.14h-2.89a.34.34,0,0,1-.28-.39.35.35,0,0,1,.28-.28h6.43a.34.34,0,0,1,.28.39.35.35,0,0,1-.28.28H123.8v8.58a.33.33,0,0,1-.65.11.2.2,0,0,1,0-.11Z"/><path class="cls-2" d="M133.35,215.58H129l-.85,2.25a.32.32,0,0,1-.31.22h-.12a.35.35,0,0,1-.2-.44l3.33-8.88a.36.36,0,0,1,.33-.21.34.34,0,0,1,.33.21l3.32,8.88a.34.34,0,0,1-.18.44h-.12a.33.33,0,0,1-.31-.22Zm-4.12-.68h3.87l-1.93-5.14Z"/><path class="cls-2" d="M136.49,208.8a.33.33,0,0,1,.32-.33.34.34,0,0,1,.35.33h0v5.38a3.2,3.2,0,0,0,6.4,0h0V208.8a.34.34,0,0,1,.39-.28.35.35,0,0,1,.28.28v5.38a3.87,3.87,0,0,1-7.74,0Z"/><path class="cls-2" d="M151.9,215.89a1.7,1.7,0,0,0-.78-1.45A3.15,3.15,0,0,0,150,214h-2.39v3.79a.34.34,0,0,1-.39.28.35.35,0,0,1-.28-.28v-8.92a.34.34,0,0,1,.3-.33H150a2.74,2.74,0,0,1,1.15,5.22l.13.07a2.42,2.42,0,0,1,1.29,2.13,4.15,4.15,0,0,0,.12,1.11.59.59,0,0,0,.14.23.35.35,0,0,1,.37.22.37.37,0,0,1-.22.44h-.19a.74.74,0,0,1-.62-.44A3.46,3.46,0,0,1,151.9,215.89ZM150,209.14h-2.37v4.14H150a2.07,2.07,0,0,0,0-4.14Z"/><path class="cls-2" d="M160.8,215.58h-4.37l-.85,2.25a.35.35,0,0,1-.32.22h-.12a.35.35,0,0,1-.19-.44l3.32-8.88a.36.36,0,0,1,.33-.21.34.34,0,0,1,.33.21l3.33,8.88a.35.35,0,0,1-.18.44H162a.35.35,0,0,1-.32-.22Zm-4.12-.68h3.88l-1.93-5.14Z"/><path class="cls-2" d="M165,209.88v7.84a.33.33,0,1,1-.66,0h0v-8.78a.33.33,0,0,1,.12-.37.34.34,0,0,1,.47.08l5.8,8v-7.8a.34.34,0,0,1,.39-.28.35.35,0,0,1,.28.28v8.82a.35.35,0,0,1-.34.33.32.32,0,0,1-.26-.12l-.05-.05Z"/><path class="cls-2" d="M177,209.14h-2.89a.34.34,0,0,1-.28-.39.35.35,0,0,1,.28-.28h6.44a.34.34,0,0,1,.28.39.35.35,0,0,1-.28.28h-2.89v8.58a.33.33,0,1,1-.66,0h0Z"/><path class="cls-2" d="M187.36,213.25h0a1.7,1.7,0,0,1,3.39,0h0a1.7,1.7,0,0,1-3.39,0Z"/><rect class="cls-2" x="37.31" y="221.26" width="200.86" height="0.5"/><rect class="cls-2" x="37.31" y="205.21" width="200.86" height="0.5"/></g><g id="freepik--Plants--inject-60"><path class="cls-10" d="M220.64,314.79h37s-.09-5.51-3.73-7a5,5,0,0,0-5.81,1.4s-1.48-10.14-8.27-10.14-10,8.74-10,8.74a5.21,5.21,0,0,0-5.28-2.15C220.79,306.16,220.64,314.79,220.64,314.79Z"/><path class="cls-10" d="M563.52,314.79s-1.51-7-4.52-8.13-4.85,2.08-4.85,2.08-.71-6.73-5-8.74-7.48,2.11-7.48,2.11-3.28-8.54-9.14-8.54-8.81,12.49-8.81,12.49-3.46-3.72-7-1.62-3.55,10.35-3.55,10.35Z"/><path class="cls-9" d="M251,314.79h34.15s-1.12-4.81-3.39-5.16a3.34,3.34,0,0,0-3.32,1.9s.11-6.72-4.12-7.86-7.78,4.79-7.78,4.79-2.65-3.39-6.27-3.17-4.53,5.81-4.53,5.81S252.49,309.16,251,314.79Z"/><path class="cls-9" d="M586.1,314.79H558.21s.06-4.15,2.8-5.25a3.72,3.72,0,0,1,4.37,1s1.12-7.64,6.23-7.64,7.56,6.59,7.56,6.59a3.92,3.92,0,0,1,4-1.62C586,308.29,586.1,314.79,586.1,314.79Z"/></g><g id="freepik--fire-hydrant--inject-60"><rect class="cls-5" x="96.02" y="297.09" width="9.51" height="17.66"/><rect class="cls-5" x="95.39" y="296.4" width="10.77" height="0.7"/><rect class="cls-5" x="95.39" y="295.25" width="10.77" height="0.7"/><rect class="cls-5" x="96.02" y="295.95" width="9.51" height="0.45"/><rect class="cls-6" x="96.02" y="295.95" width="9.51" height="0.45"/><path class="cls-5" d="M105.52,295.25H96a4.75,4.75,0,0,1,9.49,0Z"/><path class="cls-6" d="M105.52,295.25H96a3.81,3.81,0,0,1,.07-.59l9.2-.6A4.32,4.32,0,0,1,105.52,295.25Z"/><polygon class="cls-6" points="105.53 297.09 105.53 298.14 96.02 298.58 96.02 297.09 105.53 297.09"/><rect class="cls-6" x="97.08" y="299.45" width="0.82" height="14.22"/><rect class="cls-6" x="98.72" y="299.45" width="0.82" height="14.22"/><rect class="cls-6" x="100.37" y="299.45" width="0.82" height="14.22"/><rect class="cls-6" x="102.01" y="299.45" width="0.82" height="14.22"/><rect class="cls-6" x="103.65" y="299.45" width="0.82" height="14.22"/><rect class="cls-5" x="94.34" y="300.45" width="1.68" height="4.36"/><rect class="cls-5" x="93.7" y="300.82" width="0.64" height="3.73"/><rect class="cls-6" x="93.7" y="300.82" width="0.64" height="3.73"/><path class="cls-5" d="M93.7,301.59v2.08a1,1,0,1,1,0-2.08Z"/><polygon class="cls-6" points="96.02 300.45 96.02 304.81 95.63 304.81 94.94 300.45 96.02 300.45"/><rect class="cls-5" x="105.53" y="300.45" width="1.68" height="4.36"/><rect class="cls-5" x="107.21" y="300.82" width="0.64" height="3.73"/><rect class="cls-6" x="107.21" y="300.82" width="0.64" height="3.73"/><path class="cls-5" d="M107.85,301.59v2.08a1,1,0,0,0,0-2.08Z"/><polygon class="cls-6" points="105.53 300.45 105.53 304.81 105.92 304.81 106.61 300.45 105.53 300.45"/><circle class="cls-5" cx="100.78" cy="302.63" r="3.28"/><path class="cls-6" d="M103,302.63a2.26,2.26,0,1,1-2.27-2.25h0a2.25,2.25,0,0,1,2.25,2.25Z"/><rect class="cls-5" x="98.91" y="290.5" width="3.73" height="0.64"/><rect class="cls-6" x="98.91" y="290.5" width="3.73" height="0.64"/><path class="cls-5" d="M101.87,290.5H99.79a1,1,0,1,1,2.08,0Z"/></g><g id="freepik--trash-can--inject-60"><polygon class="cls-5" points="506.59 282.54 506.34 287.42 505.21 315.12 485.5 315.12 484.37 287.42 484.12 282.54 506.59 282.54"/><polygon class="cls-4" points="506.59 282.54 506.34 287.42 484.37 287.42 484.12 282.54 506.59 282.54"/><g class="cls-7"><path d="M487.57,288.8a.51.51,0,0,0-.49.5v5.43l.08,6.2.07,6.21v5.43a.28.28,0,1,0,.56,0h0v-5.43l.08-6.21.07-6.2V289.3A.49.49,0,0,0,487.57,288.8Zm0,0a.5.5,0,0,1,.5.5v5.43l.07,6.2.08,6.21v5.43a.71.71,0,0,1-.71.71h0a.7.7,0,0,1-.7-.7h0v-5.43l.07-6.21.08-6.2V289.3a.48.48,0,0,1,.46-.51A.38.38,0,0,1,487.57,288.8Z"/><path d="M490.17,288.8a.49.49,0,0,0-.49.49h0v5.43l.07,6.2.08,6.21v5.43a.27.27,0,0,0,.26.28h0a.29.29,0,0,0,.28-.28h0v-5.43l.08-6.21.08-6.2V289.3A.49.49,0,0,0,490.17,288.8Zm0,0a.49.49,0,0,1,.49.49h0v5.43l.08,6.2.07,6.21v5.43a.7.7,0,0,1-.69.71h0a.71.71,0,0,1-.71-.71h0v-5.43l.08-6.21.07-6.2V289.3a.49.49,0,0,1,.49-.51A.29.29,0,0,1,490.17,288.8Z"/><path d="M492.76,288.8a.51.51,0,0,0-.49.5v5.43l.08,6.2.07,6.21v5.43a.28.28,0,1,0,.56,0v-5.43l.07-6.21.08-6.2V289.3A.5.5,0,0,0,492.76,288.8Zm0,0a.52.52,0,0,1,.5.5v5.43l.08,6.2.08,6.21v5.43a.71.71,0,0,1-.71.71h0a.7.7,0,0,1-.7-.7h0v-5.43l.08-6.21.08-6.2V289.3a.51.51,0,0,1,.51-.51Z"/><path d="M495.35,288.8a.49.49,0,0,0-.48.5h0v5.43l.08,6.2.08,6.21v5.43a.29.29,0,0,0,.28.28h0a.27.27,0,0,0,.28-.26v-5.45l.08-6.21.08-6.2V289.3A.49.49,0,0,0,495.35,288.8Zm0,0a.5.5,0,0,1,.5.5v5.43l.08,6.2.07,6.21v5.43a.71.71,0,1,1-1.41.17.49.49,0,0,1,0-.17v-5.43l.08-6.21.07-6.2V289.3a.48.48,0,0,1,.46-.51A.38.38,0,0,1,495.35,288.8Z"/><path d="M498,288.8a.49.49,0,0,0-.49.49h0v5.43l.07,6.2.08,6.21v5.43a.28.28,0,1,0,.56,0v-5.43l.07-6.21.08-6.2V289.3A.5.5,0,0,0,498,288.8Zm0,0a.52.52,0,0,1,.5.5v5.43l.08,6.2.08,6.21v5.43a.7.7,0,0,1-1.4,0v-5.43l.08-6.21.08-6.2V289.3a.5.5,0,0,1,.52-.5Z"/><path d="M500.54,288.8a.49.49,0,0,0-.48.5h0v5.43l.08,6.2.08,6.21v5.43a.29.29,0,0,0,.28.28h0a.27.27,0,0,0,.28-.26v-5.45l.08-6.21.07-6.2V289.3A.5.5,0,0,0,500.54,288.8Zm0,0a.5.5,0,0,1,.5.5v5.43l.07,6.2.08,6.21v5.43a.71.71,0,0,1-.71.71h0a.7.7,0,0,1-.7-.7h0v-5.43l.07-6.21.08-6.2V289.3a.48.48,0,0,1,.46-.51A.38.38,0,0,1,500.54,288.8Z"/><path d="M503.14,288.8a.49.49,0,0,0-.49.49h0v5.43l.07,6.2.08,6.21v5.43a.27.27,0,0,0,.26.28h0a.27.27,0,0,0,.28-.26v-5.45l.07-6.21.08-6.2V289.3A.5.5,0,0,0,503.14,288.8Zm0,0a.49.49,0,0,1,.49.49h0v5.43l.08,6.2.08,6.21v5.43a.7.7,0,0,1-.69.71h0a.71.71,0,0,1-.71-.71h0v-5.43l.08-6.21.07-6.2V289.3a.49.49,0,0,1,.49-.51Z"/></g><polygon class="cls-5" points="499.65 277.41 499.65 280.83 498.34 280.83 498.34 278.57 492.37 278.57 492.37 280.83 491.06 280.83 491.06 277.41 499.65 277.41"/><rect class="cls-4" x="491.06" y="279.34" width="1.31" height="1.48"/><rect class="cls-4" x="498.34" y="279.34" width="1.31" height="1.48"/><rect class="cls-5" x="482.64" y="280.14" width="25.42" height="3.95"/></g></g></g></svg>