<svg width="256" height="256" viewBox="0 0 256 256" fill="none" xmlns="http://www.w3.org/2000/svg">
<g clip-path="url(#clip0)">
<rect width="256" height="256" fill="white"/>
<path d="M192.273 181.549C190.377 189.765 188.639 194.9 187.059 196.954C176.947 193.794 165.65 192.214 153.168 192.214H152.931C137.289 224.13 116.196 240.088 89.6521 240.088C82.2261 240.088 75.9851 237.876 70.9291 233.452C65.8731 229.186 63.3451 223.972 63.3451 217.81C63.3451 211.806 65.3201 206.355 69.2701 201.457C73.2201 196.559 78.4341 192.53 84.9121 189.37C96.6041 183.84 108.849 179.969 121.647 177.757L126.387 160.219C111.535 169.541 98.3421 174.202 86.8081 174.202C79.5401 174.202 73.6941 172.069 69.2701 167.803C65.0041 163.379 62.8711 156.506 62.8711 147.184C62.8711 139.758 63.8191 132.332 65.7151 124.906C67.6111 117.48 68.6381 113.372 68.7961 112.582C57.8941 109.264 48.2561 103.576 39.8821 95.518C31.6661 87.302 27.5581 76.953 27.5581 64.471C27.5581 51.989 33.1671 41.245 44.3851 32.239C55.6031 23.233 67.8481 18.73 81.1201 18.73C94.3921 18.73 104.188 22.127 110.508 28.921C116.828 35.557 119.988 43.694 119.988 53.332C119.988 62.97 116.591 77.901 109.797 98.125C103.161 118.191 99.8431 130.831 99.8431 136.045C99.8431 143.155 103.003 146.71 109.323 146.71C115.643 146.71 123.306 143.392 132.312 136.756L137.289 111.871C143.135 82.641 147.401 64.55 150.087 57.598C152.773 50.646 155.38 44.721 157.908 39.823C160.594 34.767 163.359 30.896 166.203 28.21C172.839 21.89 180.344 18.73 188.718 18.73C197.092 18.73 203.491 20.863 207.915 25.129C212.339 29.395 214.551 36.031 214.551 45.037C214.551 53.885 210.917 65.419 203.649 79.639C196.539 93.859 186.664 108.079 174.024 122.299C170.232 143.629 165.255 162.194 159.093 177.994H161.226C173.708 178.31 182.951 179.258 188.955 180.838L192.273 181.549ZM71.6401 94.807C77.6441 76.321 80.6461 61.785 80.6461 51.199C80.6461 40.613 76.6171 35.32 68.5591 35.32C62.0811 35.32 56.0771 38.164 50.5471 43.852C45.0171 49.382 42.2521 56.176 42.2521 64.234C42.2521 72.292 45.2541 78.849 51.2581 83.905C57.2621 88.961 64.0561 92.595 71.6401 94.807ZM178.053 97.177C184.373 89.909 189.666 80.903 193.932 70.159C198.198 59.257 200.331 50.804 200.331 44.8C200.331 38.796 199.225 35.794 197.013 35.794C195.117 35.794 192.984 38.006 190.614 42.43C186.506 50.33 182.161 68.658 177.579 97.414L178.053 97.177ZM80.8831 215.203C80.8831 218.995 83.5691 220.891 88.9411 220.891C94.3131 220.891 99.6851 218.442 105.057 213.544C110.587 208.804 115.011 202.405 118.329 194.347C109.323 195.137 100.791 197.665 92.7331 201.931C84.8331 206.197 80.8831 210.621 80.8831 215.203Z" fill="#30C692"/>
</g>
<defs>
<clipPath id="clip0">
<rect width="256" height="256" fill="white"/>
</clipPath>
</defs>
</svg>
