<svg width="242" height="287" viewBox="0 0 242 287" fill="none" xmlns="http://www.w3.org/2000/svg">
<path d="M213.118 210.962C210.67 221.57 208.426 228.2 206.386 230.852C193.33 226.772 178.744 224.732 162.628 224.732H162.322C142.126 265.94 114.892 286.544 80.62 286.544C71.032 286.544 62.974 283.688 56.446 277.976C49.918 272.468 46.654 265.736 46.654 257.78C46.654 250.028 49.204 242.99 54.304 236.666C59.404 230.342 66.136 225.14 74.5 221.06C89.596 213.92 105.406 208.922 121.93 206.066L128.05 183.422C108.874 195.458 91.84 201.476 76.948 201.476C67.564 201.476 60.016 198.722 54.304 193.214C48.796 187.502 46.042 178.628 46.042 166.592C46.042 157.004 47.266 147.416 49.714 137.828C52.162 128.24 53.488 122.936 53.692 121.916C39.616 117.632 27.172 110.288 16.36 99.884C5.752 89.276 0.448 75.914 0.448 59.798C0.448 43.682 7.69 29.81 22.174 18.182C36.658 6.55399 52.468 0.739988 69.604 0.739988C86.74 0.739988 99.388 5.12599 107.548 13.898C115.708 22.466 119.788 32.972 119.788 45.416C119.788 57.86 115.402 77.138 106.63 103.25C98.062 129.158 93.778 145.478 93.778 152.21C93.778 161.39 97.858 165.98 106.018 165.98C114.178 165.98 124.072 161.696 135.7 153.128L142.126 120.998C149.674 83.258 155.182 59.9 158.65 50.924C162.118 41.948 165.484 34.298 168.748 27.974C172.216 21.446 175.786 16.448 179.458 12.98C188.026 4.81999 197.716 0.739988 208.528 0.739988C219.34 0.739988 227.602 3.49399 233.314 9.00199C239.026 14.51 241.882 23.078 241.882 34.706C241.882 46.13 237.19 61.022 227.806 79.382C218.626 97.742 205.876 116.102 189.556 134.462C184.66 162.002 178.234 185.972 170.278 206.372H173.032C189.148 206.78 201.082 208.004 208.834 210.044L213.118 210.962ZM57.364 98.966C65.116 75.098 68.992 56.33 68.992 42.662C68.992 28.994 63.79 22.16 53.386 22.16C45.022 22.16 37.27 25.832 30.13 33.176C22.99 40.316 19.42 49.088 19.42 59.492C19.42 69.896 23.296 78.362 31.048 84.89C38.8 91.418 47.572 96.11 57.364 98.966ZM194.758 102.026C202.918 92.642 209.752 81.014 215.26 67.142C220.768 53.066 223.522 42.152 223.522 34.4C223.522 26.648 222.094 22.772 219.238 22.772C216.79 22.772 214.036 25.628 210.976 31.34C205.672 41.54 200.062 65.204 194.146 102.332L194.758 102.026ZM69.298 254.414C69.298 259.31 72.766 261.758 79.702 261.758C86.638 261.758 93.574 258.596 100.51 252.272C107.65 246.152 113.362 237.89 117.646 227.486C106.018 228.506 95.002 231.77 84.598 237.278C74.398 242.786 69.298 248.498 69.298 254.414Z" fill="#30C692"/>
</svg>
