<svg width="65" height="72" viewBox="0 0 65 72" fill="none" xmlns="http://www.w3.org/2000/svg">
<path d="M62.0271 17.4492C61.3183 14.1234 59.2299 11.5041 56.5784 10.6152C51.7722 9 32.5 9 32.5 9C32.5 9 13.228 9 8.42171 10.6152C5.77014 11.5043 3.68179 14.1234 2.97299 17.4492C1.68518 23.4773 1.68518 36.0546 1.68518 36.0546C1.68518 36.0546 1.68518 48.6318 2.97299 54.66C3.68179 57.9857 5.77014 60.4959 8.42171 61.3848C13.228 63 32.5 63 32.5 63C32.5 63 51.7721 63 56.5784 61.3848C59.2299 60.4959 61.3183 57.9857 62.0271 54.66C63.3149 48.6318 63.3149 36.0546 63.3149 36.0546C63.3149 36.0546 63.3149 23.4773 62.0271 17.4492ZM26.197 47.4737V24.6354L42.3046 36.0548L26.197 47.4737Z" fill="white"/>
</svg>
